<svg xmlns="http://www.w3.org/2000/svg" width="248.453" height="310.882" viewBox="0 0 248.453 310.882">
  <path id="Tracé_42" data-name="Tracé 42" d="M397.916,238.855c9.577-13.118,17.113-28.068,19.433-44.291,2.25-15.787-1.378-31.225-7.623-45.7C398.77,123.5,378.954,102.2,356.782,86.131c-36.074-26.114-94.094-59.537-139.414-37.366a48.431,48.431,0,0,0-17.427,14.182,58.263,58.263,0,0,0-9.28,19.258c-4.2,14.88-4.187,30.649-3.419,45.966.785,15.717,2.669,31.365,1.9,47.117-.942,19.189-4.884,38.063-9.873,56.554-4.57,16.973-10.589,34.191-9.594,52.036a74.086,74.086,0,0,0,62.258,67.893c14.671,2.25,29.2-1.727,42.355-8.059,13.816-6.646,26.306-15.647,38.5-24.841C327.6,307.708,342.3,296.439,356.1,284.018c15.212-13.711,29.725-28.591,41.814-45.163" transform="translate(-169.567 -41.525)" fill="#62a77c"/>
</svg>
