<svg xmlns="http://www.w3.org/2000/svg" version="1.1" xmlns:xlink="http://www.w3.org/1999/xlink" xmlns:svgjs="http://svgjs.dev/svgjs" width="1440" height="560" preserveAspectRatio="none" viewBox="0 0 1440 560"><g mask="url(&quot;#SvgjsMask1010&quot;)" fill="none"><rect width="1440" height="560" x="0" y="0" fill="rgba(92, 72, 143, 1)"></rect><path d="M 0,43 C 57.6,65.4 172.8,145.6 288,155 C 403.2,164.4 460.8,88.2 576,90 C 691.2,91.8 748.8,173.4 864,164 C 979.2,154.6 1036.8,31.8 1152,43 C 1267.2,54.2 1382.4,184.6 1440,220L1440 560L0 560z" fill="rgba(116, 91, 179, 1)"></path><path d="M 0,390 C 96,405.4 288,471 480,467 C 672,463 768,353.4 960,370 C 1152,386.6 1344,514 1440,550L1440 560L0 560z" fill="rgba(141, 110, 218, 1)"></path></g><defs><mask id="SvgjsMask1010"><rect width="1440" height="560" fill="#ffffff"></rect></mask></defs></svg>