<svg width="179" height="38" viewBox="0 0 179 38" fill="none" xmlns="http://www.w3.org/2000/svg">
<path d="M0 0.158081H110.568V37.7892H0V0.158081ZM55.6397 12.7821C55.7685 13.1058 55.8064 13.1585 55.8064 13.2112C55.7609 18.8344 55.7003 24.4576 55.6625 30.0808C55.6473 32.2714 55.6625 32.2714 57.8817 32.2563C59.139 32.2488 59.1693 32.2488 59.1617 30.9992C59.139 22.9746 59.1087 14.9501 59.0708 6.93304C59.0708 6.66957 59.0254 6.4061 58.9951 6.07488C58.4876 6.07488 58.0559 6.10499 57.6242 6.07488C57.1016 6.02971 56.8743 6.21791 56.7001 6.72979C54.8596 12.0745 52.9812 17.4116 51.1104 22.7413C50.9589 23.1779 50.7393 23.5919 50.4817 24.1791C50.3227 23.7876 50.2394 23.5994 50.1636 23.4037C48.1641 17.9461 46.172 12.496 44.1573 7.04596C44.0286 6.69968 43.7786 6.1878 43.5211 6.14263C42.7788 6.02219 41.9987 6.09746 41.1277 6.09746C41.1277 9.65808 41.1277 13.0681 41.1277 16.4782C41.1277 21.454 41.1277 26.4374 41.1428 31.4132C41.1428 32.1434 41.6351 32.5499 42.1426 32.2187C42.385 32.0606 42.491 31.5487 42.491 31.2025C42.491 25.4513 42.4759 19.7076 42.4607 13.9564C42.4607 13.6327 42.491 13.309 42.5062 12.9778C42.597 12.9778 42.6804 12.9778 42.7713 12.9703C44.945 18.5784 47.1264 24.1941 49.3835 30.0206C51.4967 24.1866 53.5266 18.601 55.6322 12.7971L55.6397 12.7821ZM75.9915 6.15016C75.9763 6.45127 75.9536 6.72226 75.946 6.99326C75.9233 14.4307 75.9006 21.8681 75.8855 29.3055C75.8855 30.1034 75.8703 30.9089 75.9612 31.6993C75.9839 31.9176 76.3778 32.2338 76.605 32.2413C76.8398 32.2413 77.2109 31.9778 77.3018 31.7444C77.4306 31.4208 77.3776 31.0218 77.3776 30.6529C77.37 24.6609 77.3548 18.6688 77.3548 12.6842C77.3548 12.0143 77.4154 11.3443 77.4457 10.6743C81.4222 18.0741 85.0805 25.5642 89.216 32.8059C89.3447 32.0531 89.3523 31.3681 89.3447 30.6755C89.3296 22.8391 89.322 15.0028 89.2993 7.1664C89.2993 6.00713 89.2766 6.00713 87.9435 6.16521V23.7349C87.383 23.065 86.9892 22.38 86.6332 21.6648C84.3534 17.1557 82.0811 12.6466 79.8013 8.14501C79.0641 6.68463 77.8573 5.9996 76.1808 6.08994C76.1808 6.08994 76.1278 6.10499 75.9915 6.15016ZM95.0102 6.06735C94.018 6.06735 93.2076 6.10499 92.4047 6.0523C91.723 6.00713 91.5715 6.2706 91.5715 6.8954C91.5791 12.3681 91.5412 17.8407 91.5564 23.3059C91.5564 25.12 91.6018 26.9342 91.776 28.7334C91.9654 30.7132 93.2757 32.1961 95.0556 32.5273C97.0401 32.9037 99.0548 32.8887 101.024 32.4069C102.948 31.9402 104.342 30.8336 104.819 28.8613C104.993 28.1537 105.069 27.4009 105.069 26.6708C105.091 20.3098 105.084 13.9414 105.076 7.58043C105.076 7.09865 105.023 6.61688 104.985 6.09746H103.728C103.705 6.45879 103.667 6.79001 103.667 7.12123C103.667 13.3617 103.667 19.6022 103.652 25.8427C103.652 26.7009 103.667 27.5666 103.584 28.4247C103.342 30.9691 101.789 32.2187 99.3881 31.8423C96.5629 31.3982 95.0102 29.6668 95.0026 26.8665C94.9875 21.582 95.0026 16.29 95.0026 11.0055C95.0026 9.40967 95.0026 7.81379 95.0026 6.06735H95.0102ZM30.895 32.2262C30.8571 31.7896 30.8571 31.4584 30.7889 31.1347C29.3499 23.7199 27.9032 16.3051 26.4489 8.89778C26.2672 7.97187 26.305 6.66957 25.7218 6.24802C25.0629 5.77377 23.8056 6.09746 22.8134 6.08241C22.7603 6.08241 22.6997 6.12757 22.5937 6.17274C22.518 6.49643 22.4346 6.85776 22.3589 7.21157C21.3137 12.609 20.2684 17.9988 19.2308 23.3962C18.7082 26.1062 18.178 28.8162 17.6857 31.5337C17.6478 31.7595 17.8599 32.023 17.9507 32.2714C18.231 32.1359 18.5643 32.0456 18.7763 31.8423C18.9354 31.6918 18.9505 31.3906 19.0036 31.1573C19.3065 29.7797 19.6171 28.4021 19.8897 27.017C19.9882 26.4901 20.2381 26.317 20.7759 26.3245C22.3059 26.3621 23.8434 26.3922 25.3734 26.317C26.1384 26.2793 26.4414 26.5202 26.5626 27.2353C26.8125 28.6581 27.1079 30.0658 27.4487 31.4659C27.5169 31.752 27.8426 32.166 28.085 32.1886C28.9787 32.2789 29.88 32.2262 30.8723 32.2262H30.895ZM65.8648 6.10499C65.4634 8.05467 65.0393 9.96672 64.6681 11.8863C63.7214 16.832 62.8049 21.7777 61.8733 26.7235C61.5779 28.2892 61.2598 29.855 61.0022 31.4283C60.9568 31.6842 61.184 31.9853 61.2901 32.2714C61.5854 32.0681 61.9036 31.8799 62.1687 31.6391C62.2596 31.5563 62.2217 31.3455 62.252 31.1949C62.5398 29.8475 62.8655 28.5 63.1154 27.145C63.229 26.5353 63.4866 26.332 64.1076 26.3471C65.7058 26.3772 67.3039 26.3621 68.8945 26.3245C69.4474 26.3094 69.6671 26.5051 69.7731 27.0246C70.0534 28.5 70.3639 29.9754 70.7275 31.4283C70.7956 31.7219 71.1062 32.1509 71.341 32.1811C72.2271 32.2714 73.1285 32.2187 74.204 32.2187C72.5074 23.4338 70.8411 14.7694 69.1672 6.11252H65.8573L65.8648 6.10499ZM6.33957 6.08994C6.33957 6.83518 6.33957 7.50515 6.33957 8.16759C6.33957 15.9136 6.32442 23.6597 6.31684 31.4057C6.31684 31.8423 6.21838 32.2563 6.93035 32.2563C9.93729 32.2563 12.9442 32.3015 15.9512 32.294C16.3299 32.294 16.701 32.0983 17.0797 31.9929C17.0646 31.8799 17.0494 31.7746 17.0343 31.6616C16.4965 31.5788 15.9512 31.4208 15.4134 31.4208C13.9743 31.4208 12.5352 31.4584 11.0886 31.5111C9.77823 31.5563 9.77823 31.5788 9.77823 30.3217C9.77823 22.6058 9.77823 14.8899 9.77823 7.17393C9.77823 6.82013 9.77823 6.46632 9.77823 6.08241H6.33957V6.08994Z" fill="black"/>
<path d="M55.6398 12.7745C53.5341 18.5784 51.5118 24.1715 49.3911 29.998C47.1264 24.164 44.9526 18.5558 42.7788 12.9477C42.688 12.9477 42.6046 12.9477 42.5137 12.9552C42.4986 13.2789 42.4683 13.6026 42.4683 13.9338C42.4835 19.685 42.5062 25.4286 42.4986 31.1798C42.4986 31.5336 42.3926 32.038 42.1502 32.1961C41.6427 32.5273 41.1504 32.1208 41.1504 31.3906C41.1353 26.4148 41.1353 21.4314 41.1353 16.4556C41.1353 13.0455 41.1353 9.63546 41.1353 6.07484C41.9987 6.07484 42.7788 5.99204 43.5287 6.12001C43.7862 6.16518 44.0362 6.67706 44.1649 7.02334C46.1796 12.4734 48.1716 17.931 50.1712 23.3811C50.2394 23.5768 50.3303 23.765 50.4893 24.1565C50.7469 23.5693 50.9665 23.1553 51.118 22.7187C52.9888 17.3815 54.8672 12.0519 56.7077 6.70717C56.8819 6.20282 57.1091 6.01462 57.6318 6.05226C58.0635 6.0899 58.4952 6.05226 59.0027 6.05226C59.033 6.38348 59.0784 6.64695 59.0784 6.91042C59.1087 14.935 59.1466 22.9596 59.1693 30.9766C59.1693 32.2262 59.1466 32.2262 57.8893 32.2337C55.6776 32.2488 55.6549 32.2488 55.6701 30.0582C55.7079 24.435 55.7685 18.8118 55.814 13.1886C55.814 13.1359 55.7761 13.0832 55.6473 12.7595L55.6398 12.7745Z" fill="white"/>
<path d="M75.9916 6.14269C76.1279 6.09752 76.1582 6.08247 76.1809 6.08247C77.8523 5.98712 79.0591 6.67214 79.8014 8.13754C82.0812 12.6467 84.3535 17.1558 86.6333 21.6574C86.9893 22.365 87.3831 23.0575 87.9436 23.7275V6.15022C89.2691 5.99214 89.2918 5.99214 89.2994 7.15141C89.3221 14.9878 89.3297 22.8241 89.3448 30.6605C89.3448 31.3455 89.3448 32.0381 89.2161 32.7909C85.0806 25.5492 81.4298 18.0666 77.4458 10.6593C77.4155 11.3293 77.3474 11.9993 77.3549 12.6692C77.3549 18.6613 77.3701 24.6534 77.3777 30.6379C77.3777 31.0068 77.4307 31.4058 77.3019 31.7295C77.211 31.9628 76.8399 32.2338 76.6051 32.2263C76.3779 32.2263 75.984 31.9026 75.9613 31.6843C75.8704 30.8939 75.878 30.0884 75.8855 29.2905C75.9007 21.8531 75.9234 14.4157 75.9461 6.97827C75.9461 6.70727 75.9764 6.43627 75.9916 6.13516V6.14269Z" fill="white"/>
<path d="M95.0102 6.05978C95.0102 7.81374 95.0102 9.40209 95.0102 10.998C95.0102 16.2824 94.995 21.5744 95.0102 26.8589C95.0177 29.6668 96.5704 31.3981 99.3956 31.8347C101.797 32.2111 103.349 30.9615 103.592 28.4171C103.675 27.559 103.652 26.7008 103.66 25.8351C103.66 19.5946 103.66 13.3542 103.675 7.11366C103.675 6.78244 103.713 6.45122 103.736 6.08989H104.993C105.023 6.6093 105.084 7.09108 105.084 7.57285C105.084 13.9338 105.091 20.3023 105.076 26.6632C105.076 27.3934 104.993 28.1462 104.826 28.8538C104.349 30.826 102.955 31.9326 101.032 32.3993C99.0623 32.8811 97.0552 32.8962 95.0632 32.5198C93.2757 32.181 91.9653 30.6981 91.7836 28.7258C91.6169 26.9267 91.5715 25.1049 91.5639 23.2983C91.5488 17.8256 91.5866 12.353 91.5791 6.88783C91.5791 6.2555 91.7381 5.99956 92.4122 6.04472C93.2151 6.09742 94.0255 6.05978 95.0177 6.05978H95.0102Z" fill="white"/>
<path d="M30.895 32.2263C29.9028 32.2263 28.9939 32.279 28.1078 32.1886C27.8654 32.1661 27.5397 31.752 27.4715 31.466C27.1307 30.0658 26.8353 28.6506 26.5854 27.2354C26.4566 26.5203 26.1612 26.2794 25.3962 26.317C23.8662 26.3923 22.3287 26.3622 20.7987 26.3245C20.2534 26.3095 20.011 26.4901 19.9125 27.0171C19.6399 28.4022 19.3293 29.7798 19.0264 31.1573C18.9733 31.3982 18.9582 31.6993 18.7991 31.8424C18.587 32.0456 18.2538 32.1284 17.9735 32.2714C17.8751 32.023 17.663 31.7596 17.7084 31.5337C18.2008 28.8162 18.731 26.1062 19.2536 23.3962C20.2988 17.9989 21.3365 12.609 22.3817 7.21162C22.4499 6.85029 22.5408 6.49648 22.6165 6.17279C22.7225 6.12763 22.7756 6.08246 22.8361 6.08246C23.8359 6.09751 25.0932 5.77382 25.7446 6.24807C26.3354 6.66962 26.29 7.97192 26.4717 8.89783C27.926 16.3126 29.3651 23.7199 30.8117 31.1348C30.8723 31.4585 30.8723 31.7897 30.9178 32.2263H30.895ZM20.2382 25.5642H26.0324C25.1463 20.1292 24.2752 14.7695 23.4042 9.41725C23.3133 9.41725 23.23 9.41725 23.1391 9.41725C22.1772 14.7619 21.2153 20.1066 20.2382 25.5642Z" fill="white"/>
<path d="M65.8649 6.10494H69.1748C70.8411 14.7694 72.515 23.4263 74.2116 32.2111C73.1361 32.2111 72.2347 32.2638 71.3485 32.1735C71.1137 32.1509 70.8032 31.7143 70.735 31.4207C70.3791 29.9603 70.0685 28.4924 69.7807 27.017C69.6822 26.49 69.455 26.3018 68.9021 26.3169C67.304 26.3545 65.7058 26.3696 64.1152 26.3395C63.4942 26.3244 63.2291 26.5352 63.123 27.1374C62.8731 28.4924 62.555 29.8399 62.2596 31.1874C62.2293 31.3379 62.2596 31.5487 62.1762 31.6315C61.9111 31.8724 61.593 32.053 61.2976 32.2638C61.1992 31.9853 60.972 31.6842 61.0098 31.4207C61.2674 29.8474 61.5855 28.2816 61.8809 26.7159C62.8125 21.7702 63.7289 16.8244 64.6757 11.8787C65.0469 9.95914 65.4634 8.0471 65.8724 6.09741L65.8649 6.10494ZM66.7359 9.45478L66.4935 9.3795C65.4862 14.7694 64.4864 20.1667 63.4714 25.5717H69.2657C68.4098 20.1291 67.569 14.7919 66.7283 9.45478H66.7359Z" fill="white"/>
<path d="M6.3396 6.0824H9.77827C9.77827 6.45878 9.77827 6.82012 9.77827 7.17392C9.77827 14.8898 9.77827 22.6058 9.77827 30.3217C9.77827 31.5788 9.77827 31.5562 11.0886 31.5111C12.5277 31.4584 13.9668 31.4132 15.4134 31.4208C15.9512 31.4208 16.4965 31.5788 17.0343 31.6616C17.0495 31.7746 17.0646 31.8799 17.0798 31.9929C16.701 32.0982 16.3299 32.294 15.9512 32.294C12.9443 32.294 9.93732 32.2488 6.93038 32.2563C6.21841 32.2563 6.31688 31.8348 6.31688 31.4057C6.32445 23.6597 6.33203 15.9136 6.3396 8.16758C6.3396 7.49761 6.3396 6.82764 6.3396 6.08993V6.0824Z" fill="white"/>
<path d="M20.238 25.5717C21.2227 20.1065 22.177 14.7618 23.1389 9.42468C23.2298 9.42468 23.3131 9.42468 23.404 9.42468C24.2751 14.7844 25.1461 20.1366 26.0323 25.5717H20.238Z" fill="black"/>
<path d="M66.7359 9.45479C67.5766 14.792 68.4174 20.1291 69.2732 25.5717H63.479C64.4864 20.1668 65.4937 14.7694 66.5011 9.37952L66.7435 9.45479H66.7359Z" fill="black"/>
<path d="M130.404 37.8043H110.567V0.158081H113.582V28.7033L130.404 37.8043Z" fill="black"/>
<path d="M152.915 0.376343H119.149V28.8839H152.915V0.376343Z" fill="#C7C6C6"/>
<path d="M152.915 0.376343H119.149V28.8839H152.915V0.376343Z" fill="#757575"/>
<path d="M135.926 37.9849L169.797 37.9398L152.861 28.8839H119.497L135.926 37.9849Z" fill="#383838"/>
<path d="M135.926 37.9698L169.797 37.9246L152.861 28.8688H119.497L135.926 37.9698Z" fill="#393838"/>
<path d="M135.926 37.9624L169.797 37.9097L152.861 28.8613H119.497L135.926 37.9624Z" fill="#393939"/>
<path d="M135.926 37.9472L169.797 37.8945L152.861 28.8462H119.497L135.926 37.9472Z" fill="#3A3A3A"/>
<path d="M135.926 37.9322L169.797 37.8795L152.861 28.8312H119.497L135.926 37.9322Z" fill="#3B3B3B"/>
<path d="M135.926 37.9172L169.797 37.8645L152.861 28.8162H119.497L135.926 37.9172Z" fill="#3C3B3B"/>
<path d="M135.926 37.9021L169.797 37.8569L152.861 28.801H119.497L135.926 37.9021Z" fill="#3C3C3C"/>
<path d="M135.926 37.887L169.797 37.8419L152.861 28.786H119.497L135.926 37.887Z" fill="#3D3D3D"/>
<path d="M135.926 37.872L169.797 37.8269L152.861 28.771H119.497L135.926 37.872Z" fill="#3E3E3E"/>
<path d="M135.926 37.8644L169.797 37.8117L152.861 28.7559H119.497L135.926 37.8644Z" fill="#3F3E3E"/>
<path d="M135.926 37.8494L169.797 37.7968L152.861 28.7484H119.497L135.926 37.8494Z" fill="#3F3F3F"/>
<path d="M135.926 37.8343L169.797 37.7816L152.861 28.7333H119.497L135.926 37.8343Z" fill="#404040"/>
<path d="M135.926 37.8193L169.797 37.7666L152.861 28.7183H119.497L135.926 37.8193Z" fill="#414040"/>
<path d="M135.926 37.8043L169.797 37.7591L152.861 28.7032H119.497L135.926 37.8043Z" fill="#414141"/>
<path d="M135.926 37.7891L169.797 37.744L152.861 28.6881H119.497L135.926 37.7891Z" fill="#424242"/>
<path d="M135.926 37.7741L169.797 37.729L152.861 28.6731H119.497L135.926 37.7741Z" fill="#434243"/>
<path d="M135.926 37.7591L169.797 37.7139L152.861 28.6581H119.497L135.926 37.7591Z" fill="#444343"/>
<path d="M135.926 37.7515L169.797 37.6988L152.861 28.6505H119.497L135.926 37.7515Z" fill="#444444"/>
<path d="M135.926 37.7365L169.797 37.6838L152.861 28.6355H119.497L135.926 37.7365Z" fill="#454545"/>
<path d="M135.926 37.7214L169.797 37.6687L152.861 28.6204H119.497L135.926 37.7214Z" fill="#464545"/>
<path d="M135.926 37.7064L169.797 37.6537L152.861 28.6053H119.497L135.926 37.7064Z" fill="#464646"/>
<path d="M135.926 37.6914L169.797 37.6462L152.861 28.5903H119.497L135.926 37.6914Z" fill="#474747"/>
<path d="M135.926 37.6762L169.797 37.6311L152.861 28.5752H119.497L135.926 37.6762Z" fill="#484848"/>
<path d="M135.926 37.6612L169.797 37.616L152.861 28.5602H119.497L135.926 37.6612Z" fill="#494848"/>
<path d="M135.926 37.6537L169.797 37.601L152.861 28.5452H119.497L135.926 37.6537Z" fill="#494949"/>
<path d="M135.926 37.6386L169.797 37.5859L152.861 28.5376H119.497L135.926 37.6386Z" fill="#4A4A4A"/>
<path d="M135.926 37.6236L169.797 37.5709L152.861 28.5226H119.497L135.926 37.6236Z" fill="#4B4B4B"/>
<path d="M135.926 37.6085L169.797 37.5558L152.861 28.5074H119.497L135.926 37.6085Z" fill="#4C4B4B"/>
<path d="M135.926 37.5935L169.797 37.5483L152.861 28.4924H119.497L135.926 37.5935Z" fill="#4C4C4C"/>
<path d="M135.926 37.5784L169.797 37.5333L152.861 28.4774H119.497L135.926 37.5784Z" fill="#4D4D4D"/>
<path d="M135.926 37.5633L169.797 37.5181L152.861 28.4623H119.497L135.926 37.5633Z" fill="#4E4E4E"/>
<path d="M135.926 37.5483L169.797 37.5031L152.861 28.4473H119.497L135.926 37.5483Z" fill="#4F4E4E"/>
<path d="M135.926 37.5407L169.797 37.488L152.861 28.4397H119.497L135.926 37.5407Z" fill="#504F4F"/>
<path d="M135.926 37.5257L169.797 37.473L152.861 28.4247H119.497L135.926 37.5257Z" fill="#505050"/>
<path d="M135.926 37.5107L169.797 37.458L152.861 28.4097H119.497L135.926 37.5107Z" fill="#515151"/>
<path d="M135.926 37.4956L169.797 37.4429L152.861 28.3945H119.497L135.926 37.4956Z" fill="#525252"/>
<path d="M135.926 37.4805L169.797 37.4354L152.861 28.3795H119.497L135.926 37.4805Z" fill="#535252"/>
<path d="M135.926 37.4655L169.797 37.4204L152.861 28.3645H119.497L135.926 37.4655Z" fill="#545353"/>
<path d="M135.926 37.4504L169.797 37.4052L152.861 28.3494H119.497L135.926 37.4504Z" fill="#545454"/>
<path d="M135.926 37.4429L169.797 37.3902L152.861 28.3344H119.497L135.926 37.4429Z" fill="#555555"/>
<path d="M135.926 37.4278L169.797 37.3751L152.861 28.3268H119.497L135.926 37.4278Z" fill="#565656"/>
<path d="M135.926 37.4128L169.797 37.3601L152.861 28.3118H119.497L135.926 37.4128Z" fill="#575656"/>
<path d="M135.926 37.9849L119.149 28.914V0.376343L136.032 7.59544L135.926 37.9849Z" fill="#474747"/>
<path d="M135.911 37.9849L119.134 28.914V0.376343L136.017 7.59544L135.911 37.9849Z" fill="#464546"/>
<path d="M135.895 37.9849L119.119 28.914V0.376343L136.001 7.59544L135.895 37.9849Z" fill="#444444"/>
<path d="M135.88 37.9849L119.104 28.914V0.376343L135.986 7.59544L135.88 37.9849Z" fill="#424243"/>
<path d="M135.865 37.9849L119.096 28.914V0.383911L135.971 7.59548L135.865 37.9849Z" fill="#414142"/>
<path d="M135.858 37.9849L119.081 28.914V0.383911L135.956 7.59548L135.858 37.9849Z" fill="#3F3F40"/>
<path d="M135.842 37.9849L119.066 28.914V0.383911L135.941 7.59548L135.842 37.9849Z" fill="#3D3E3F"/>
<path d="M135.827 37.9849L119.051 28.914V0.383911L135.933 7.59548L135.827 37.9849Z" fill="#3B3C3D"/>
<path d="M135.812 37.9925L119.035 28.914V0.383911L135.918 7.59548L135.812 37.9925Z" fill="#3A3A3C"/>
<path d="M135.797 37.9925L119.02 28.914V0.383911L135.903 7.59548L135.797 37.9925Z" fill="#38393B"/>
<path d="M135.782 37.9925L119.005 28.914V0.383911L135.888 7.59548L135.782 37.9925Z" fill="#363739"/>
<path d="M135.767 37.9925L118.99 28.914V0.383911L135.873 7.59548L135.767 37.9925Z" fill="#353638"/>
<path d="M135.752 37.9925L118.975 28.914V0.383911L135.858 7.59548L135.752 37.9925Z" fill="#333436"/>
<path d="M135.736 37.9925L118.96 28.914V0.383911L135.843 7.59548L135.736 37.9925Z" fill="#313235"/>
<path d="M135.721 37.9925L118.944 28.9215V0.383911L135.827 7.59548L135.721 37.9925Z" fill="#303133"/>
<path d="M135.706 37.9925L118.929 28.9215V0.383911L135.812 7.60301L135.706 37.9925Z" fill="#2E2F32"/>
<path d="M135.698 37.9925L118.922 28.9215V0.383911L135.797 7.60301L135.698 37.9925Z" fill="#2C2E30"/>
<path d="M135.683 37.9925L118.906 28.9215V0.383911L135.782 7.60301L135.683 37.9925Z" fill="#2B2C2F"/>
<path d="M135.668 37.9925L118.891 28.9215V0.383911L135.774 7.60301L135.668 37.9925Z" fill="#292B2E"/>
<path d="M135.653 37.9925L118.876 28.9215V0.383911L135.759 7.60301L135.653 37.9925Z" fill="#28292C"/>
<path d="M135.638 37.9925L118.861 28.9215V0.383911L135.744 7.60301L135.638 37.9925Z" fill="#26282B"/>
<path d="M135.623 37.9925L118.846 28.9215V0.383911L135.729 7.60301L135.623 37.9925Z" fill="#242629"/>
<path d="M135.608 37.9925L118.831 28.9215V0.383911L135.714 7.60301L135.608 37.9925Z" fill="#232528"/>
<path d="M135.592 37.9925L118.816 28.9215V0.383911L135.698 7.60301L135.592 37.9925Z" fill="#212326"/>
<path d="M135.577 37.9925L118.801 28.9215V0.383911L135.683 7.60301L135.577 37.9925Z" fill="#202225"/>
<path d="M135.562 37.9925L118.785 28.9215V0.383911L135.668 7.60301L135.562 37.9925Z" fill="#1E2024"/>
<path d="M135.547 37.9925L118.77 28.9215V0.383911L135.653 7.60301L135.547 37.9925Z" fill="#1D1F22"/>
<path d="M135.532 37.9925L118.755 28.9215V0.383911L135.638 7.60301L135.532 37.9925Z" fill="#1B1D21"/>
<path d="M135.524 37.9925L118.748 28.9215V0.383911L135.623 7.60301L135.524 37.9925Z" fill="#1A1C1F"/>
<path d="M135.509 37.9925L118.732 28.9215V0.383911L135.608 7.60301L135.509 37.9925Z" fill="#181A1E"/>
<path d="M135.494 37.9925L118.717 28.9215V0.383911L135.6 7.60301L135.494 37.9925Z" fill="#17191C"/>
<path d="M135.479 37.9925L118.702 28.9215V0.383911L135.585 7.60301L135.479 37.9925Z" fill="#15181B"/>
<path d="M135.464 37.9925L118.687 28.9215V0.383911L135.57 7.60301L135.464 37.9925Z" fill="#141619"/>
<path d="M135.449 37.9925L118.672 28.9215V0.383911L135.555 7.60301L135.449 37.9925Z" fill="#121418"/>
<path d="M135.433 37.9925L118.657 28.9215V0.383911L135.54 7.60301L135.433 37.9925Z" fill="#111316"/>
<path d="M135.418 37.9925L118.642 28.9215V0.383911L135.524 7.60301L135.418 37.9925Z" fill="#0F1114"/>
<path d="M135.403 37.9925L118.626 28.9215V0.383911L135.509 7.60301L135.403 37.9925Z" fill="#0E1013"/>
<path d="M135.388 37.9925L118.611 28.9215V0.383911L135.494 7.60301L135.388 37.9925Z" fill="#0C0E11"/>
<path d="M135.373 37.9925L118.596 28.9215V0.383911L135.479 7.60301L135.373 37.9925Z" fill="#0A0C0F"/>
<path d="M135.365 37.9925L118.588 28.9215V0.383911L135.464 7.60301L135.365 37.9925Z" fill="#090B0D"/>
<path d="M135.35 37.9925L118.573 28.9215V0.383911L135.448 7.60301L135.35 37.9925Z" fill="#07090B"/>
<path d="M135.335 37.9925L118.558 28.9215V0.383911L135.441 7.60301L135.335 37.9925Z" fill="#050709"/>
<path d="M135.32 37.9924L118.543 28.9215V0.391357L135.426 7.60293L135.32 37.9924Z" fill="#040607"/>
<path d="M135.305 37.9924L118.528 28.9215V0.391357L135.411 7.60293L135.305 37.9924Z" fill="#030405"/>
<path d="M135.289 37.9924L118.513 28.9215V0.391357L135.395 7.60293L135.289 37.9924Z" fill="#020303"/>
<path d="M135.274 37.9999L118.498 28.9215V0.391357L135.38 7.60293L135.274 37.9999Z" fill="#010202"/>
<path d="M135.259 37.9999L118.482 28.9215V0.391357L135.365 7.60293L135.259 37.9999Z" fill="black"/>
<path d="M177.076 29.5915L164.874 24.1866V7.0836L177.076 11.4045V29.584V29.5915ZM161.034 0V27.8677L178.993 37.0967V7.45998L161.034 0Z" fill="#5A5A5A"/>
<path d="M177.001 29.5991L164.799 24.1941V7.09113L177.001 11.412V29.5915V29.5991ZM160.958 0V27.8677L178.917 37.0967V7.46751L160.958 0Z" fill="#595858"/>
<path d="M176.925 29.6065L164.723 24.2016V7.09861L176.925 11.4195V29.599V29.6065ZM160.883 0.0150146V27.8827L178.841 37.1117V7.475L160.883 0.0150146Z" fill="#575757"/>
<path d="M176.849 29.6141L164.647 24.2092V7.10618L176.849 11.4271V29.6066V29.6141ZM160.807 0.022583V27.8903L178.765 37.1193V7.48257L160.807 0.022583Z" fill="#565555"/>
<path d="M176.773 29.6217L164.571 24.2168V7.11375L176.773 11.4347V29.6141V29.6217ZM160.739 0.0301514V27.8978L178.697 37.1268V7.49014L160.739 0.0301514Z" fill="#545454"/>
<path d="M176.698 29.6291L164.496 24.2242V7.1212L176.698 11.4421V29.6216V29.6291ZM160.663 0.0375977V27.9053L178.621 37.1343V7.49758L160.663 0.0375977Z" fill="#535253"/>
<path d="M176.622 29.6367L164.42 24.2318V7.12876L176.622 11.4497V29.6292V29.6367ZM160.587 0.045166V27.9128L178.546 37.1418V7.50515L160.587 0.045166Z" fill="#515151"/>
<path d="M176.546 29.6443L164.344 24.2393V7.13633L176.546 11.4573V29.6367V29.6443ZM160.511 0.0527344V27.9204L178.47 37.1494V7.51272L160.511 0.0527344Z" fill="#504F50"/>
<path d="M176.47 29.6517L164.268 24.2468V7.14378L176.47 11.4647V29.6442V29.6517ZM160.436 0.0601807V27.9278L178.394 37.1569V7.52016L160.436 0.0601807Z" fill="#4E4E4E"/>
<path d="M176.395 29.6593L164.193 24.2544V7.15135L176.395 11.4723V29.6517V29.6593ZM160.36 0.067749V27.9354L178.318 37.1644V7.52773L160.36 0.067749Z" fill="#4D4D4D"/>
<path d="M176.326 29.6668L164.125 24.2619V7.15892L176.326 11.4798V29.6593V29.6668ZM160.284 0.0753174V27.943L178.243 37.172V7.5353L160.284 0.0753174Z" fill="#4B4B4C"/>
<path d="M176.251 29.6743L164.049 24.2694V7.16636L176.251 11.4873V29.6668V29.6743ZM160.208 0.0827637V27.9504L178.167 37.1794V7.54275L160.208 0.0827637Z" fill="#4A4A4A"/>
<path d="M176.175 29.6819L163.973 24.2769V7.17393L176.175 11.4948V29.6743V29.6819ZM160.133 0.090332V27.958L178.091 37.187V7.55032L160.133 0.090332Z" fill="#494849"/>
<path d="M176.099 29.6894L163.897 24.2845V7.1815L176.099 11.5024V29.6819V29.6894ZM160.057 0.0979004V27.9656L178.015 37.1946V7.55788L160.057 0.0979004Z" fill="#474748"/>
<path d="M176.023 29.6969L163.822 24.292V7.18894L176.023 11.5099V29.6893V29.6969ZM159.981 0.105347V27.973L177.94 37.202V7.56533L159.981 0.105347Z" fill="#464646"/>
<path d="M175.948 29.7044L163.746 24.2995V7.19651L175.948 11.5174V29.6969V29.7044ZM159.906 0.112915V27.9806L177.864 37.2096V7.5729L159.906 0.112915Z" fill="#454445"/>
<path d="M175.872 29.712L163.67 24.3071V7.20408L175.872 11.525V29.7045V29.712ZM159.83 0.120483V27.9882L177.788 37.2172V7.58047L159.83 0.120483Z" fill="#434344"/>
<path d="M175.796 29.7195L163.594 24.3145V7.21153L175.796 11.5324V29.7119V29.7195ZM159.754 0.12793V27.9956L177.712 37.2246V7.58791L159.754 0.12793Z" fill="#424243"/>
<path d="M175.721 29.727L163.519 24.3221V7.2191L175.721 11.54V29.7195V29.727ZM159.678 0.135498V28.0032L177.637 37.2322V7.59548L159.678 0.135498Z" fill="#414141"/>
<path d="M175.645 29.7346L163.443 24.3297V7.22666L175.645 11.5476V29.7271V29.7346ZM159.603 0.143066V28.0107L177.561 37.2397V7.60305L159.603 0.143066Z" fill="#3F3F40"/>
<path d="M175.569 29.742L163.367 24.3371V7.23411L175.569 11.555V29.7345V29.742ZM159.527 0.150513V28.0182L177.485 37.2472V7.6105L159.527 0.150513Z" fill="#3E3E3F"/>
<path d="M175.493 29.7496L163.291 24.3447V7.24168L175.493 11.5626V29.7421V29.7496ZM159.451 0.158081V28.0258L177.409 37.2548V7.61807L159.451 0.158081Z" fill="#3D3D3E"/>
<path d="M175.418 29.7572L163.216 24.3523V7.24925L175.418 11.5702V29.7496V29.7572ZM159.383 0.165649V28.0333L177.341 37.2623V7.62563L159.383 0.165649Z" fill="#3B3B3C"/>
<path d="M175.342 29.7646L163.14 24.3597V7.25669L175.342 11.5776V29.7571V29.7646ZM159.307 0.173096V28.0408L177.266 37.2698V7.63308L159.307 0.173096Z" fill="#3A3A3B"/>
<path d="M175.266 29.7722L163.064 24.3673V7.26426L175.266 11.5852V29.7647V29.7722ZM159.231 0.180664V28.0483L177.19 37.2773V7.64065L159.231 0.180664Z" fill="#39393A"/>
<path d="M175.19 29.7798L162.988 24.3748V7.27183L175.19 11.5927V29.7722V29.7798ZM159.156 0.188232V28.0559L177.114 37.2849V7.64822L159.156 0.188232Z" fill="#373838"/>
<path d="M175.115 29.7872L162.913 24.3823V7.27928L175.115 11.6002V29.7797V29.7872ZM159.08 0.195679V28.0634L177.038 37.2924V7.65566L159.08 0.195679Z" fill="#363637"/>
<path d="M175.039 29.7948L162.837 24.3899V7.28684L175.039 11.6078V29.7872V29.7948ZM159.004 0.203247V28.0709L176.963 37.2999V7.66323L159.004 0.203247Z" fill="#353536"/>
<path d="M174.971 29.8023L162.769 24.3974V7.29441L174.971 11.6153V29.7948V29.8023ZM158.928 0.210815V28.0785L176.887 37.3075V7.6708L158.928 0.210815Z" fill="#333434"/>
<path d="M174.895 29.8098L162.693 24.4049V7.30186L174.895 11.6228V29.8023V29.8098ZM158.853 0.218262V28.0859L176.811 37.3149V7.67825L158.853 0.218262Z" fill="#323233"/>
<path d="M174.819 29.8174L162.617 24.4124V7.30943L174.819 11.6303V29.8098V29.8174ZM158.777 0.22583V28.0935L176.735 37.3225V7.68581L158.777 0.22583Z" fill="#313132"/>
<path d="M174.743 29.8249L162.542 24.42V7.317L174.743 11.6379V29.8174V29.8249ZM158.701 0.233398V28.1011L176.66 37.3301V7.69338L158.701 0.233398Z" fill="#2F3030"/>
<path d="M174.668 29.8324L162.466 24.4275V7.32444L174.668 11.6454V29.8248V29.8324ZM158.625 0.240845V28.1085L176.584 37.3375V7.70083L158.625 0.240845Z" fill="#2E2E2F"/>
<path d="M174.592 29.8399L162.39 24.435V7.33201L174.592 11.6529V29.8324V29.8399ZM158.55 0.248413V28.1161L176.508 37.3451V7.7084L158.55 0.248413Z" fill="#2D2D2E"/>
<path d="M174.516 29.8475L162.314 24.4426V7.33958L174.516 11.6605V29.84V29.8475ZM158.474 0.255981V28.1237L176.432 37.3527V7.71597L158.474 0.255981Z" fill="#2B2C2D"/>
<path d="M174.44 29.855L162.239 24.45V7.34703L174.44 11.6679V29.8474V29.855ZM158.398 0.263428V28.1311L176.357 37.3601V7.72341L158.398 0.263428Z" fill="#2A2A2B"/>
<path d="M174.365 29.8625L162.163 24.4576V7.35459L174.365 11.6755V29.855V29.8625ZM158.323 0.270996V28.1387L176.281 37.3677V7.73098L158.323 0.270996Z" fill="#29292A"/>
<path d="M174.289 29.8701L162.087 24.4652V7.36216L174.289 11.6831V29.8626V29.8701ZM158.247 0.278564V28.1462L176.205 37.3752V7.73855L158.247 0.278564Z" fill="#282829"/>
<path d="M174.213 29.87L162.011 24.4651V7.36961L174.213 11.6905V29.87ZM158.171 0.286011V28.1537L176.129 37.3827V7.746L158.171 0.286011Z" fill="#262727"/>
<path d="M174.138 29.8776L161.936 24.4727V7.37718L174.138 11.6981V29.8776ZM158.095 0.293579V28.1613L176.054 37.3903V7.75356L158.095 0.293579Z" fill="#252526"/>
<path d="M174.062 29.8851L161.86 24.4802V7.38475L174.062 11.7057V29.8851ZM158.027 0.301147V28.1688L175.986 37.3978V7.76113L158.027 0.301147Z" fill="#242425"/>
<path d="M173.986 29.8926L161.784 24.4877V7.39219L173.986 11.7131V29.8926ZM157.951 0.308594V28.1763L175.91 37.4053V7.76858L157.951 0.308594Z" fill="#222323"/>
<path d="M173.91 29.9002L161.708 24.4952V7.39976L173.91 11.7207V29.9002ZM157.876 0.316162V28.1838L175.834 37.4128V7.77615L157.876 0.316162Z" fill="#212222"/>
<path d="M173.835 29.9077L161.633 24.5028V7.40729L173.835 11.7282V29.9077ZM157.8 0.316162V28.1838L175.758 37.4128V7.78367L157.8 0.316162Z" fill="#202021"/>
<path d="M173.759 29.9153L161.557 24.5103V7.41486L173.759 11.7358V29.9153ZM157.724 0.32373V28.1914L175.683 37.4204V7.79124L157.724 0.32373Z" fill="#1F1F20"/>
<path d="M173.683 29.9227L161.481 24.5178V7.4223L173.683 11.7432V29.9227ZM157.648 0.331177V28.1988L175.607 37.4279V7.79869L157.648 0.331177Z" fill="#1E1E1E"/>
<path d="M173.615 29.9303L161.413 24.5254V7.42987L173.615 11.7508V29.9303ZM157.573 0.338745V28.2064L175.531 37.4354V7.80626L157.573 0.338745Z" fill="#1C1C1D"/>
<path d="M173.539 29.9378L161.337 24.5329V7.43744L173.539 11.7584V29.9378ZM157.497 0.346313V28.214L175.455 37.443V7.81383L157.497 0.346313Z" fill="#1B1B1C"/>
<path d="M173.463 29.9453L161.261 24.5404V7.44489L173.463 11.7658V29.9453ZM157.421 0.35376V28.2214L175.38 37.4504V7.82127L157.421 0.35376Z" fill="#1A1A1A"/>
<path d="M173.388 29.9529L161.186 24.5479V7.45245L173.388 11.7734V29.9529ZM157.346 0.361328V28.229L175.304 37.458V7.82884L157.346 0.361328Z" fill="#181819"/>
<path d="M173.312 29.9604L161.11 24.5555V7.46002L173.312 11.7809V29.9604ZM157.27 0.368896V28.2366L175.228 37.4656V7.83641L157.27 0.368896Z" fill="#171717"/>
<path d="M173.236 29.9679L161.034 24.563V7.46747L173.236 11.7884V29.9679ZM157.194 0.376343V28.244L175.152 37.473V7.84385L157.194 0.376343Z" fill="#161616"/>
<path d="M175.069 27.0622V29.4485L174.069 29.9679L173.236 24.8792L170.494 19.813L169.366 17.7354L168.646 16.4105L164.45 8.67197L163.875 7.61056L165.882 6.56421L167.639 9.80866L170.275 14.6641L170.994 15.9889L172.123 18.0741L173.236 20.1292L175.069 27.0622Z" fill="#888989"/>
<path d="M175.077 10.8927V12.5412L173.236 16.8847L172.123 18.0741L170.494 19.813L168.745 21.6874L165.715 24.9394L164.041 23.4263L167.616 19.6023L169.366 17.7354L170.994 15.9889L173.236 13.5876L174.236 10.1399L175.077 10.8927Z" fill="#888989"/>
<path d="M163.814 7.61813L165.821 6.57178L167.578 9.81623L170.214 14.6791L170.934 15.9965L171.759 17.5171L172.062 18.0817L173.176 20.1368L175.039 27.0698L175.062 29.4486L174.062 29.968L173.888 29.0345L173.183 24.9018L170.441 19.8356L169.487 18.0892L169.305 17.7505L168.586 16.4256L164.39 8.67954L163.814 7.61813Z" fill="#878787"/>
<path d="M175.062 10.9152L175.047 12.5563L173.176 16.8847L172.062 18.0741L171.578 18.5935L170.434 19.8206L168.684 21.6874L165.655 24.9394L163.981 23.4339L167.556 19.6023L169.313 17.7278L169.487 17.5472L170.941 15.9814L173.191 13.5725L173.948 11.0432L174.221 10.1625L175.062 10.9152Z" fill="#878787"/>
<path d="M163.746 7.62558L165.753 6.57922L167.51 9.82368L170.154 14.6866L170.873 16.0115L171.699 17.5321L172.002 18.0967L173.115 20.1517L175.009 27.0772L175.046 29.4485L174.047 29.9679L173.857 29.057L173.13 24.9318L170.381 19.8581L169.434 18.1042L169.252 17.773L168.533 16.4481L164.321 8.68699L163.746 7.62558Z" fill="#858585"/>
<path d="M175.047 10.9378L175.009 12.5714L173.115 16.8923L172.002 18.0817L171.517 18.5935L170.373 19.8206L168.624 21.695L165.586 24.9469L163.913 23.4414L167.503 19.6023L169.26 17.7203L169.434 17.5397L170.896 15.9739L173.138 13.565L173.926 11.0357L174.206 10.1851L175.047 10.9378Z" fill="#858585"/>
<path d="M163.685 7.63315L165.692 6.58679L167.449 9.83125L170.093 14.6942L170.812 16.019L171.638 17.5396L171.941 18.1042L173.054 20.1593L174.971 27.0773L175.031 29.4485L174.031 29.9679L173.834 29.0797L173.077 24.962L170.328 19.8808L169.381 18.1268L169.199 17.7881L168.472 16.4632L164.261 8.69456L163.685 7.63315Z" fill="#838383"/>
<path d="M175.031 10.9604L174.971 12.5864L173.054 16.8923L171.941 18.0817L171.456 18.6011L170.313 19.8281L168.563 21.695L165.526 24.9545L163.852 23.4489L167.442 19.6023L169.207 17.7203L169.381 17.5321L170.843 15.9664L173.092 13.55L173.895 11.0282L174.183 10.2076L175.031 10.9604Z" fill="#838383"/>
<path d="M163.625 7.63315L165.632 6.58679L167.389 9.83877L170.032 14.7017L170.752 16.0266L171.577 17.5547L171.88 18.1193L172.994 20.1744L174.94 27.0848L175.016 29.4485L174.016 29.9679L173.804 29.1022L173.032 24.9846L170.275 19.9034L169.32 18.1419L169.138 17.8106L168.419 16.4858L164.2 8.70209L163.625 7.63315Z" fill="#818181"/>
<path d="M175.016 10.983L174.94 12.6015L172.994 16.8923L171.88 18.0817L171.396 18.6011L170.252 19.8281L168.502 21.7025L165.465 24.962L163.791 23.4565L167.389 19.6023L169.154 17.7128L169.328 17.5321L170.79 15.9588L173.047 13.5424L173.872 11.0282L174.168 10.2302L175.016 10.983Z" fill="#818181"/>
<path d="M163.556 7.64071L165.564 6.59436L167.328 9.84634L169.964 14.7168L170.691 16.0417L171.517 17.5623L171.82 18.1268L172.933 20.1819L174.91 27.0849L175.001 29.4486L174.001 29.968L173.774 29.1324L172.979 25.0147L170.222 19.9184L169.267 18.1645L169.086 17.8257L168.358 16.5009L164.14 8.70965L163.556 7.64071Z" fill="#7F7F80"/>
<path d="M174.993 11.0057L174.903 12.6166L172.941 16.8999L171.82 18.0893L171.335 18.6087L170.191 19.8357L168.442 21.7101L165.397 24.9696L163.723 23.4641L167.328 19.6023L169.101 17.7129L169.267 17.5247L170.737 15.9514L173.001 13.5275L173.842 11.0207L174.153 10.2454L174.993 11.0057Z" fill="#7F7F80"/>
<path d="M163.496 7.64816L165.503 6.60181L167.268 9.85379L169.904 14.7242L170.631 16.0491L171.456 17.5772L171.759 18.1418L172.873 20.1969L174.88 27.0923L174.993 29.4485L173.986 29.9679L173.751 29.1549L172.926 25.0372L170.161 19.941L169.214 18.1795L169.033 17.8482L168.305 16.5158L164.071 8.7171L163.496 7.64816Z" fill="#7E7D7E"/>
<path d="M174.978 11.0281L174.865 12.6315L172.88 16.8998L171.759 18.0891L171.275 18.6086L170.131 19.8356L168.381 21.71L165.336 24.977L163.663 23.4639L167.275 19.6022L169.04 17.7052L169.214 17.5246L170.691 15.9437L172.956 13.5198L173.82 11.0131L174.138 10.2678L174.978 11.0281Z" fill="#7E7D7E"/>
<path d="M163.435 7.65573L165.442 6.60938L167.2 9.86136L169.843 14.7318L170.57 16.0642L171.396 17.5848L171.699 18.1494L172.812 20.2045L174.842 27.0923L174.978 29.4485L173.971 29.9679L173.721 29.1775L172.873 25.0674L170.108 19.9636L169.154 18.2021L168.972 17.8633L168.245 16.5385L164.011 8.72467L163.435 7.65573Z" fill="#7C7C7C"/>
<path d="M174.963 11.0507L174.835 12.6466L172.82 16.8998L171.706 18.0967L171.222 18.6161L170.07 19.8431L168.321 21.7175L165.276 24.977L163.602 23.4715L167.215 19.5947L168.987 17.7052L169.161 17.517L170.638 15.9362L172.903 13.5047L173.797 11.0131L174.115 10.2904L174.963 11.0507Z" fill="#7C7C7C"/>
<path d="M163.367 7.6633L165.374 6.61694L167.139 9.86892L169.782 14.7394L170.509 16.0718L171.335 17.5999L171.638 18.1645L172.751 20.2196L174.811 27.0999L174.963 29.4486L173.956 29.968L173.691 29.2001L172.819 25.0975L170.055 19.9862L169.101 18.2172L168.919 17.886L168.192 16.5536L163.95 8.73224L163.367 7.6633Z" fill="#7A7A7A"/>
<path d="M174.948 11.0734L174.796 12.6618L172.759 16.9074L171.646 18.0968L171.161 18.6162L170.01 19.8432L168.26 21.7176L165.208 24.9847L163.534 23.4791L167.162 19.5948L168.934 17.6978L169.108 17.5096L170.585 15.9363L172.857 13.4973L173.766 11.0057L174.1 10.3131L174.948 11.0734Z" fill="#7A7A7A"/>
<path d="M163.306 7.66322L165.314 6.62439L167.078 9.87637L169.722 14.7543L170.449 16.0792L171.274 17.6074L171.577 18.1719L172.691 20.227L174.781 27.0998L174.948 29.4485L173.941 29.9679L173.668 29.2302L172.774 25.12L170.002 20.0087L169.04 18.2397L168.858 17.9009L168.139 16.5685L163.89 8.73968L163.306 7.66322Z" fill="#787878"/>
<path d="M174.933 11.0883L174.759 12.6767L172.698 16.9073L171.585 18.0967L171.1 18.6161L169.949 19.8431L168.199 21.725L165.147 24.9921L163.473 23.4865L167.101 19.5947L168.881 17.6977L169.055 17.5095L170.54 15.9287L172.812 13.4897L173.744 10.998L174.085 10.3356L174.933 11.0883Z" fill="#787878"/>
<path d="M163.246 7.67074L165.253 6.62439L167.018 9.8839L169.661 14.7619L170.388 16.0943L171.214 17.6224L171.517 18.187L172.63 20.2421L174.743 27.1074L174.933 29.4485L173.925 29.9754L173.638 29.2528L172.721 25.1501L169.941 20.0238L168.987 18.2623L168.805 17.9235L168.078 16.5911L163.821 8.74721L163.246 7.67074Z" fill="#767676"/>
<path d="M174.918 11.1109L174.728 12.6918L172.638 16.9073L171.525 18.1042L171.04 18.6236L169.889 19.8506L168.139 21.725L165.086 24.9996L163.413 23.494L167.048 19.5947L168.828 17.6902L169.002 17.502L170.487 15.9211L172.767 13.4746L173.713 10.998L174.062 10.3582L174.918 11.1109Z" fill="#767676"/>
<path d="M163.178 7.67831L165.185 6.63196L166.95 9.89147L169.601 14.7694L170.328 16.1018L171.153 17.63L171.456 18.1946L172.57 20.2572L174.713 27.1074L174.925 29.4485L173.91 29.9755L173.615 29.2754L172.668 25.1803L169.888 20.0464L168.934 18.2774L168.752 17.9461L168.025 16.6062L163.761 8.74725L163.178 7.67831Z" fill="#757474"/>
<path d="M174.895 11.1335L174.691 12.7068L172.585 16.9148L171.464 18.1042L170.979 18.6236L169.836 19.8506L168.078 21.7326L165.018 25.0071L163.344 23.5016L166.995 19.5947L168.775 17.6902L168.949 17.502L170.434 15.9136L172.721 13.4671L173.691 10.9905L174.047 10.3807L174.895 11.1335Z" fill="#757474"/>
<path d="M163.117 7.68588L165.124 6.63953L166.889 9.89904L169.54 14.777L170.267 16.1094L171.093 17.6451L171.396 18.2097L172.509 20.2647L174.683 27.115L174.91 29.4486L173.895 29.9755L173.585 29.298L172.615 25.2029L169.835 20.069L168.874 18.3L168.692 17.9612L167.965 16.6213L163.7 8.75482L163.117 7.68588Z" fill="#737273"/>
<path d="M174.88 11.1562L174.653 12.7295L172.524 16.9149L171.403 18.1118L170.919 18.6312L169.775 19.8582L168.01 21.7326L164.958 25.0072L163.284 23.5017L166.935 19.5948L168.722 17.6827L168.896 17.4945L170.388 15.9062L172.668 13.4521L173.668 10.9906L174.032 10.3959L174.88 11.1562Z" fill="#737273"/>
<path d="M163.056 7.69333L165.064 6.64697L166.828 9.90648L169.479 14.792L170.206 16.1244L171.032 17.6525L171.335 18.2171L172.456 20.2797L174.645 27.1149L174.895 29.4485L173.88 29.9754L173.554 29.328L172.562 25.233L169.775 20.0915L168.82 18.315L168.639 17.9837L167.911 16.6438L163.64 8.76227L163.056 7.69333Z" fill="#717071"/>
<path d="M174.865 11.1786L174.615 12.7444L172.464 16.9148L171.343 18.1117L170.858 18.6311L169.714 19.8581L167.949 21.74L164.897 25.0146L163.223 23.5091L166.881 19.5946L168.669 17.6826L168.843 17.4944L170.335 15.8985L172.623 13.4445L173.638 10.9829L174.009 10.4183L174.865 11.1786Z" fill="#717071"/>
<path d="M162.988 7.7009L165.003 6.65454L166.768 9.91405L169.419 14.7995L170.146 16.132L170.971 17.6676L171.274 18.2322L172.395 20.2873L174.615 27.1224L174.88 29.4485L173.865 29.9755L173.532 29.3507L172.517 25.2556L169.722 20.1141L168.76 18.3376L168.578 17.9988L167.851 16.6589L163.571 8.76983L162.988 7.7009Z" fill="#6F6F6F"/>
<path d="M174.85 11.2013L174.584 12.7596L172.403 16.9224L171.282 18.1118L170.797 18.6312L169.654 19.8658L167.889 21.7402L164.836 25.0223L163.155 23.5167L166.821 19.5948L168.616 17.6752L168.79 17.487L170.282 15.8911L172.577 13.4296L173.615 10.9755L173.994 10.441L174.85 11.2013Z" fill="#6F6F6F"/>
<path d="M162.928 7.70094L164.935 6.66211L166.7 9.92162L169.358 14.8071L170.078 16.1471L170.911 17.6752L171.214 18.2398L172.335 20.3024L174.584 27.1225L174.865 29.4486L173.85 29.9755L173.501 29.3733L172.464 25.2857L169.669 20.1292L168.707 18.3527L168.525 18.0215L167.798 16.6815L163.511 8.7774L162.928 7.70094Z" fill="#6D6D6D"/>
<path d="M174.834 11.2239L174.547 12.7746L172.343 16.9224L171.222 18.1193L170.737 18.6387L169.593 19.8658L167.828 21.7477L164.768 25.0298L163.094 23.5242L166.768 19.5948L168.563 17.6752L168.737 17.4795L170.229 15.8836L172.532 13.422L173.585 10.9755L173.979 10.4636L174.834 11.2239Z" fill="#6D6D6D"/>
<path d="M162.867 7.70846L164.874 6.66211L166.639 9.92162L169.29 14.8146L170.017 16.1546L170.85 17.6902L171.153 18.2473L172.274 20.3099L174.547 27.13L174.857 29.4486L173.842 29.9755L173.471 29.3959L172.411 25.3158L169.616 20.1518L168.654 18.3753L168.472 18.0365L167.737 16.6966L163.45 8.78493L162.867 7.70846Z" fill="#6C6B6C"/>
<path d="M174.812 11.2465L174.509 12.7897L172.282 16.9224L171.161 18.1193L170.676 18.6387L169.533 19.8658L167.768 21.7552L164.708 25.0373L163.034 23.5318L166.707 19.5948L168.51 17.6677L168.684 17.4795L170.184 15.8761L172.486 13.407L173.562 10.968L173.963 10.4862L174.812 11.2465Z" fill="#6C6B6C"/>
<path d="M162.807 7.71591L164.814 6.66956L166.579 9.92906L169.23 14.8296L169.957 16.162L170.79 17.6977L171.093 18.2623L172.214 20.3249L174.516 27.1299L174.842 29.4485L173.827 29.9754L173.448 29.4184L172.358 25.3383L169.555 20.1743L168.593 18.3902L168.412 18.059L167.684 16.7116L163.39 8.79238L162.807 7.71591Z" fill="#6A696A"/>
<path d="M174.797 11.269L174.479 12.8046L172.221 16.9298L171.1 18.1267L170.616 18.6461L169.472 19.8732L167.707 21.7551L164.647 25.0447L162.973 23.5392L166.654 19.5946L168.457 17.6675L168.631 17.4718L170.131 15.8684L172.434 13.3993L173.532 10.9603L173.941 10.5087L174.797 11.269Z" fill="#6A696A"/>
<path d="M162.738 7.72348L164.745 6.67712L166.518 9.93663L169.169 14.8372L169.896 16.1771L170.729 17.7128L171.032 18.2698L172.153 20.3324L174.486 27.1375L174.827 29.4485L173.812 29.9755L173.418 29.4485L172.304 25.3685L169.502 20.1969L168.54 18.4129L168.358 18.0741L167.624 16.7342L163.321 8.79994L162.738 7.72348Z" fill="#686868"/>
<path d="M174.781 11.2917L174.44 12.8198L172.168 16.9299L171.047 18.1269L170.555 18.6463L169.411 19.8733L167.646 21.7628L164.579 25.0448L162.905 23.5393L166.594 19.5948L168.404 17.6601L168.578 17.4719L170.078 15.861L172.388 13.3919L173.509 10.9605L173.925 10.5314L174.781 11.2917Z" fill="#686868"/>
<path d="M162.678 7.73105L164.685 6.68469L166.457 9.9442L169.108 14.8448L169.835 16.1847L170.668 17.7204L170.971 18.2849L172.092 20.3475L174.448 27.1375L174.812 29.4486L173.797 29.9755L173.388 29.4711L172.251 25.3911L169.449 20.212L168.48 18.4355L168.298 18.0967L167.571 16.7493L163.261 8.80751L162.678 7.73105Z" fill="#676667"/>
<path d="M174.766 11.3142L174.403 12.8348L172.108 16.9299L170.987 18.1268L170.494 18.6538L169.351 19.8808L167.586 21.7627L164.518 25.0523L162.844 23.5468L166.541 19.5947L168.351 17.6601L168.525 17.4644L170.032 15.8534L172.342 13.3768L173.486 10.9529L173.91 10.5464L174.766 11.3142Z" fill="#676667"/>
<path d="M162.617 7.73849L164.624 6.69214L166.389 9.95165L169.048 14.8522L169.775 16.1921L170.608 17.7353L170.911 18.2924L172.032 20.355L174.418 27.145L174.796 29.4485L173.781 29.9754L173.365 29.4936L172.206 25.4211L169.396 20.2345L168.427 18.4505L168.245 18.1117L167.51 16.7642L163.2 8.81496L162.617 7.73849Z" fill="#656465"/>
<path d="M174.751 11.3368L174.372 12.8499L172.047 16.9374L170.926 18.1343L170.434 18.6538L169.29 19.8808L167.525 21.7702L164.458 25.0599L162.784 23.5543L166.48 19.5947L168.298 17.6526L168.472 17.4568L169.979 15.8459L172.297 13.3693L173.456 10.9454L173.888 10.569L174.751 11.3368Z" fill="#656465"/>
<path d="M162.549 7.73849L164.556 6.69214L166.329 9.95917L168.987 14.8673L169.714 16.2072L170.547 17.7429L170.858 18.3074L171.971 20.37L174.387 27.145L174.789 29.4485L173.766 29.9754L173.335 29.5162L172.153 25.4513L169.336 20.2571L168.374 18.473L168.192 18.1343L167.457 16.7868L163.14 8.82249L162.549 7.73849Z" fill="#636363"/>
<path d="M174.736 11.3594L174.335 12.8649L171.987 16.9374L170.866 18.1343L170.381 18.6538L169.23 19.8883L167.465 21.7702L164.39 25.0674L162.716 23.5618L166.427 19.5947L168.245 17.6526L168.419 17.4568L169.926 15.8459L172.252 13.3542L173.433 10.9454L173.873 10.5916L174.736 11.3594Z" fill="#636363"/>
<path d="M162.489 7.74606L164.496 6.69971L166.268 9.96674L168.927 14.8748L169.654 16.2148L170.487 17.7579L170.797 18.315L171.911 20.3776L174.35 27.1526L174.774 29.4485L173.751 29.9755L173.304 29.5464L172.1 25.4739L169.283 20.2797L168.313 18.4881L168.131 18.1569L167.397 16.8019L163.072 8.83006L162.489 7.74606Z" fill="#616161"/>
<path d="M174.713 11.382L174.297 12.88L171.926 16.9374L170.805 18.1343L170.32 18.6613L169.169 19.8883L167.404 21.7778L164.329 25.0749L162.655 23.5694L166.367 19.5947L168.184 17.645L168.366 17.4493L169.881 15.8384L172.199 13.3467L173.403 10.9378L173.857 10.6141L174.713 11.382Z" fill="#616161"/>
<path d="M162.428 7.75363L164.435 6.70728L166.207 9.97431L168.866 14.8824L169.593 16.2299L170.426 17.7655L170.737 18.3301L171.85 20.3927L174.319 27.1526L174.759 29.4486L173.736 29.9755L173.282 29.569L172.047 25.504L169.23 20.3024L168.26 18.5108L168.078 18.172L167.344 16.817L163.011 8.83762L162.428 7.75363Z" fill="#605F60"/>
<path d="M174.698 11.4045L174.267 12.895L171.865 16.945L170.745 18.1419L170.26 18.6613L169.109 19.8883L167.344 21.7778L164.269 25.0824L162.595 23.5769L166.314 19.5947L168.131 17.645L168.313 17.4493L169.828 15.8309L172.153 13.3316L173.38 10.9303L173.835 10.6367L174.698 11.4045Z" fill="#605F60"/>
<path d="M162.36 7.76108L164.367 6.71472L166.139 9.98176L168.805 14.8898L169.532 16.2373L170.373 17.7805L170.676 18.3375L171.789 20.4001L174.289 27.16L174.743 29.4485L173.721 29.9829L173.251 29.5915L171.994 25.5341L169.176 20.3173L168.199 18.5257L168.018 18.1945L167.283 16.8395L162.95 8.84507L162.36 7.76108Z" fill="#5E5E5E"/>
<path d="M174.683 11.4271L174.228 12.9101L171.805 16.945L170.684 18.1419L170.199 18.6688L169.048 19.8958L167.283 21.7853L164.2 25.0824L162.526 23.5769L166.253 19.5947L168.078 17.6375L168.26 17.4418L169.775 15.8233L172.108 13.3241L173.357 10.9303L173.819 10.6593L174.683 11.4271Z" fill="#5E5E5E"/>
<path d="M162.299 7.76864L164.306 6.72229L166.079 9.98933L168.745 14.9049L169.472 16.2449L170.313 17.7881L170.615 18.3526L171.729 20.4152L174.251 27.1601L174.728 29.4485L173.706 29.983L173.229 29.6141L171.949 25.5567L169.116 20.34L168.146 18.5484L167.965 18.2096L167.23 16.8546L162.89 8.85264L162.299 7.76864Z" fill="#5C5C5C"/>
<path d="M174.668 11.4497L174.191 12.9251L171.752 16.9449L170.623 18.1494L170.138 18.6688L168.987 19.8958L167.222 21.7853L164.14 25.0899L162.466 23.5844L166.2 19.5872L168.025 17.6299L168.207 17.4417L169.729 15.8158L172.062 13.309L173.327 10.9227L173.804 10.6743L174.668 11.4497Z" fill="#5C5C5C"/>
<path d="M162.239 7.76869L164.246 6.72986L166.018 9.99689L168.684 14.9125L169.411 16.26L170.252 17.8032L170.555 18.3602L171.668 20.4228L174.221 27.1677L174.721 29.4486L173.691 29.983L173.198 29.6443L171.896 25.5868L169.063 20.3626L168.093 18.5635L167.912 18.2322L167.169 16.8697L162.822 8.86021L162.239 7.76869Z" fill="#5B5A5B"/>
<path d="M174.653 11.4724L174.16 12.9478L171.691 16.9526L170.563 18.1495L170.078 18.6764L168.927 19.9034L167.162 21.7929L164.079 25.0976L162.405 23.592L166.139 19.5873L167.972 17.6301L168.154 17.4343L169.676 15.8084L172.017 13.3016L173.304 10.9229L173.789 10.697L174.653 11.4724Z" fill="#5B5A5B"/>
<path d="M162.17 7.77621L164.178 6.72986L165.957 10.0044L168.616 14.92L169.351 16.2675L170.191 17.8107L170.494 18.3753L171.608 20.4379L174.191 27.1752L174.706 29.4486L173.676 29.983L173.168 29.6669L171.843 25.6094L169.01 20.3852L168.033 18.586L167.851 18.2473L167.116 16.8923L162.761 8.86773L162.17 7.77621Z" fill="#595959"/>
<path d="M174.638 11.495L174.123 12.9629L171.631 16.9526L170.502 18.1495L170.017 18.6764L168.866 19.9034L167.101 21.7929L164.011 25.1051L162.337 23.5996L166.086 19.5873L167.919 17.6225L168.101 17.4268L169.623 15.8008L171.964 13.2941L173.274 10.9153L173.767 10.7196L174.638 11.495Z" fill="#595959"/>
<path d="M162.11 7.78366L164.117 6.7373L165.889 10.0119L168.555 14.9275L169.29 16.2749L170.131 17.8257L170.434 18.3827L171.547 20.4453L174.153 27.1751L174.691 29.4485L173.66 29.9829L173.145 29.6894L171.79 25.6394L168.957 20.4077L167.98 18.6085L167.798 18.2698L167.056 16.9073L162.701 8.87518L162.11 7.78366Z" fill="#575757"/>
<path d="M174.615 11.5174L174.085 12.9778L171.57 16.9524L170.449 18.1569L169.957 18.6763L168.813 19.9108L167.041 21.8003L163.951 25.1125L162.277 23.607L166.026 19.5872L167.866 17.6224L168.048 17.4267L169.571 15.7932L171.919 13.2789L173.252 10.9077L173.751 10.7421L174.615 11.5174Z" fill="#575757"/>
<path d="M162.049 7.79123L164.056 6.74487L165.829 10.0194L168.495 14.935L169.229 16.29L170.07 17.8332L170.373 18.3978L171.486 20.4604L174.122 27.1827L174.675 29.4485L173.645 29.983L173.115 29.712L171.736 25.6696L168.896 20.4228L167.927 18.6236L167.737 18.2849L167.003 16.9299L162.64 8.88275L162.049 7.79123Z" fill="#565556"/>
<path d="M174.6 11.54L174.054 12.9929L171.509 16.96L170.388 18.1569L169.896 18.6838L168.752 19.9108L166.98 21.8078L163.89 25.12L162.216 23.6145L165.973 19.5872L167.813 17.6149L167.995 17.4192L169.525 15.7856L171.873 13.2714L173.221 10.9077L173.736 10.7646L174.6 11.54Z" fill="#565556"/>
<path d="M161.981 7.7988L163.988 6.75244L165.768 10.027L168.434 14.9501L169.169 16.2976L170.01 17.8483L170.313 18.4054L171.426 20.468L174.092 27.1827L174.66 29.4486L173.638 29.983L173.085 29.7421L171.691 25.6922L168.843 20.4454L167.866 18.6463L167.684 18.3075L166.942 16.945L162.579 8.88279L161.981 7.7988Z" fill="#545454"/>
<path d="M174.584 11.5627L174.016 13.008L171.449 16.9601L170.328 18.1645L169.835 18.6839L168.692 19.911L166.919 21.808L163.829 25.1202L162.148 23.6146L165.912 19.5873L167.76 17.615L167.942 17.4193L169.472 15.7782L171.827 13.2565L173.198 10.9003L173.713 10.7874L174.584 11.5627Z" fill="#545454"/>
<path d="M161.92 7.80624L163.928 6.75989L165.707 10.0345L168.374 14.9576L169.108 16.3126L169.949 17.8558L170.252 18.4203L171.365 20.4829L174.054 27.1902L174.645 29.4485L173.622 29.983L173.062 29.7646L171.638 25.7222L168.79 20.4679L167.813 18.6612L167.631 18.3225L166.889 16.96L162.511 8.89024L161.92 7.80624Z" fill="#525253"/>
<path d="M174.569 11.5852L173.979 13.023L171.388 16.96L170.267 18.1644L169.775 18.6914L168.631 19.9184L166.859 21.8154L163.761 25.1276L162.087 23.622L165.859 19.5872L167.707 17.6074L167.889 17.4116L169.419 15.7706L171.782 13.2488L173.176 10.8926L173.698 10.8098L174.569 11.5852Z" fill="#525253"/>
<path d="M161.86 7.80628L163.867 6.76746L165.647 10.042L168.313 14.9652L169.048 16.3202L169.888 17.8709L170.191 18.4279L171.312 20.4905L174.024 27.1902L174.637 29.4485L173.607 29.983L173.032 29.7873L171.585 25.7524L168.737 20.4905L167.753 18.6839L167.571 18.3451L166.829 16.9826L162.451 8.8978L161.86 7.80628Z" fill="#515051"/>
<path d="M174.554 11.6078L173.948 13.0381L171.335 16.9676L170.207 18.1645L169.714 18.6914L168.571 19.9185L166.798 21.8154L163.701 25.1352L162.027 23.6296L165.799 19.5872L167.654 17.6074L167.836 17.4117L169.374 15.7631L171.729 13.2338L173.145 10.8927L173.683 10.825L174.554 11.6078Z" fill="#515051"/>
<path d="M161.799 7.81381L163.806 6.76746L165.579 10.0495L168.252 14.9727L168.987 16.3277L169.828 17.8784L170.131 18.443L171.252 20.5056L173.994 27.1977L174.622 29.4485L173.592 29.983L173.001 29.8098L171.532 25.775L168.677 20.5131L167.7 18.6989L167.518 18.3677L166.776 16.9976L162.39 8.90533L161.799 7.81381Z" fill="#4F4F4F"/>
<path d="M174.532 11.6304L173.911 13.0532L171.275 16.9676L170.146 18.172L169.654 18.699L168.51 19.926L166.738 21.823L163.64 25.1427L161.958 23.6372L165.746 19.5872L167.601 17.5999L167.783 17.4042L169.321 15.7631L171.684 13.2263L173.123 10.8852L173.668 10.8475L174.532 11.6304Z" fill="#4F4F4F"/>
<path d="M161.731 7.82138L163.738 6.77502L165.518 10.0571L168.192 14.9878L168.926 16.3428L169.767 17.8935L170.07 18.4505L171.191 20.5131L173.963 27.1978L174.607 29.4486L173.577 29.983L172.979 29.8325L171.479 25.8051L168.623 20.5282L167.646 18.7215L167.457 18.3828L166.715 17.0127L162.329 8.9129L161.731 7.82138Z" fill="#4D4D4E"/>
<path d="M174.516 11.653L173.872 13.0682L171.214 16.9676L170.085 18.172L169.593 18.699L168.449 19.926L166.677 21.823L163.572 25.1502L161.898 23.6447L165.685 19.5872L167.548 17.5999L167.73 17.3967L169.267 15.7556L171.638 13.2112L173.092 10.8776L173.645 10.8701L174.516 11.653Z" fill="#4D4D4E"/>
<path d="M161.67 7.82883L163.678 6.78247L165.457 10.0646L168.131 14.9952L168.866 16.3502L169.707 17.9009L170.01 18.4655L171.131 20.5281L173.925 27.2052L174.592 29.4485L173.562 29.9829L172.948 29.8625L171.426 25.8276L168.57 20.5507L167.586 18.7365L167.404 18.4053L166.662 17.0352L162.261 8.92035L161.67 7.82883Z" fill="#4C4C4C"/>
<path d="M174.501 11.6755L173.835 13.0832L171.153 16.9675L170.025 18.1795L169.533 18.6989L168.389 19.9334L166.616 21.8304L163.511 25.1501L161.837 23.6521L165.632 19.5872L167.495 17.5923L167.677 17.3966L169.222 15.748L171.593 13.2036L173.07 10.8776L173.63 10.8926L174.501 11.6755Z" fill="#4C4C4C"/>
<path d="M161.61 7.83639L163.617 6.79004L165.397 10.0721L168.071 15.0028L168.805 16.3578L169.646 17.916L169.949 18.4731L171.07 20.5357L173.895 27.2053L174.577 29.4485L173.547 29.983L172.918 29.8851L171.381 25.8578L168.51 20.5733L167.533 18.7591L167.351 18.4204L166.601 17.0503L162.201 8.92791L161.61 7.83639Z" fill="#4A4A4B"/>
<path d="M174.486 11.6982L173.804 13.0983L171.093 16.9751L169.964 18.1795L169.48 18.7065L168.328 19.9335L166.556 21.8305L163.451 25.1578L161.777 23.6522L165.571 19.5872L167.442 17.5924L167.624 17.3891L169.169 15.7406L171.547 13.1962L173.047 10.8701L173.615 10.9153L174.486 11.6982Z" fill="#4A4A4B"/>
<path d="M161.542 7.83643L163.549 6.79761L165.329 10.0797L168.01 15.0104L168.745 16.3729L169.585 17.9236L169.888 18.4807L171.009 20.5508L173.865 27.2128L174.569 29.4486L173.532 29.983L172.895 29.9078L171.328 25.8879L168.457 20.5959L167.472 18.7818L167.291 18.443L166.548 17.0654L162.14 8.93548L161.542 7.83643Z" fill="#494949"/>
<path d="M174.471 11.7207L173.767 13.1133L171.032 16.9751L169.904 18.1795L169.419 18.7064L168.268 19.9335L166.495 21.838L163.382 25.1652L161.708 23.6597L165.518 19.5872L167.382 17.5848L167.571 17.3891L169.116 15.733L171.494 13.1811L173.017 10.8625L173.592 10.9378L174.471 11.7207Z" fill="#494949"/>
<path d="M161.481 7.84396L163.488 6.79761L165.268 10.0872L167.942 15.0254L168.684 16.3804L169.525 17.9387L169.828 18.4957L170.949 20.5583L173.827 27.2128L174.554 29.4486L173.517 29.9906L172.865 29.9303L171.275 25.9105L168.404 20.611L167.419 18.7968L167.238 18.4581L166.488 17.088L162.08 8.94301L161.481 7.84396Z" fill="#474748"/>
<path d="M174.456 11.7358L173.729 13.1284L170.972 16.9751L169.843 18.187L169.358 18.714L168.207 19.941L166.435 21.838L163.322 25.1728L161.648 23.6672L165.458 19.5872L167.329 17.5848L167.518 17.3816L169.063 15.7255L171.449 13.1736L172.994 10.8625L173.577 10.9529L174.456 11.7358Z" fill="#474748"/>
<path d="M161.42 7.85141L163.428 6.80505L165.207 10.0947L167.881 15.0329L168.623 16.3954L169.464 17.9461L169.767 18.5032L170.888 20.5733L173.797 27.2203L174.539 29.4485L173.501 29.9905L172.835 29.9604L171.221 25.9405L168.351 20.6335L167.366 18.8193L167.177 18.4806L166.435 17.103L162.011 8.95046L161.42 7.85141Z" fill="#464646"/>
<path d="M174.433 11.7583L173.698 13.1509L170.919 16.9826L169.79 18.187L169.298 18.7139L168.146 19.941L166.374 21.8455L163.261 25.1803L161.587 23.6747L165.405 19.5872L167.275 17.5772L167.465 17.374L169.017 15.7179L171.403 13.1585L172.964 10.855L173.562 10.9754L174.433 11.7583Z" fill="#464646"/>
<path d="M161.352 7.85898L163.359 6.81262L165.147 10.1022L167.821 15.0404L168.563 16.403L169.404 17.9612L169.707 18.5182L170.828 20.5808L173.766 27.2203L174.524 29.4485L173.486 29.9905L172.812 29.983L171.168 25.9632L168.29 20.6561L167.306 18.8344L167.124 18.4957L166.374 17.1256L161.951 8.95803L161.352 7.85898Z" fill="#444445"/>
<path d="M174.418 11.7809L173.66 13.166L170.858 16.9826L169.729 18.1945L169.237 18.7139L168.086 19.9485L166.313 21.8455L163.193 25.1878L161.519 23.6822L165.344 19.5872L167.222 17.5772L167.412 17.374L168.964 15.7104L171.358 13.1509L172.941 10.855L173.539 10.998L174.418 11.7809Z" fill="#444445"/>
<path d="M161.292 7.86654L163.299 6.82019L165.079 10.1098L167.76 15.048L168.502 16.4105L169.343 17.9688L169.646 18.5258L170.767 20.5959L173.729 27.2279L174.509 29.4486L173.471 29.9906L172.782 30.0056L171.123 25.9933L168.237 20.6787L167.253 18.857L167.071 18.5183L166.321 17.1407L161.89 8.96559L161.292 7.86654Z" fill="#434343"/>
<path d="M174.403 11.8036L173.623 13.1811L170.797 16.9826L169.669 18.1946L169.177 18.7215L168.025 19.9486L166.245 21.8531L163.132 25.1879L161.458 23.6898L165.291 19.5872L167.169 17.5698L167.359 17.3666L168.911 15.7029L171.312 13.136L172.911 10.8475L173.524 11.0207L174.403 11.8036Z" fill="#434343"/>
<path d="M161.231 7.87399L163.238 6.82764L165.018 10.1173L167.7 15.063L168.442 16.4255L169.283 17.9837L169.585 18.5408L170.706 20.6034L173.698 27.2278L174.501 29.4485L173.456 29.9905L172.759 30.0281L171.07 26.0234L168.184 20.7013L167.192 18.872L167.01 18.5333L166.26 17.1557L161.83 8.97304L161.231 7.87399Z" fill="#414142"/>
<path d="M174.388 11.8261L173.592 13.1961L170.737 16.9901L169.608 18.1946L169.116 18.7215L167.965 19.9561L166.185 21.8606L163.072 25.1954L161.398 23.6898L165.23 19.5797L167.116 17.5698L167.306 17.3665L168.866 15.6954L171.26 13.1284L172.888 10.84L173.509 11.0432L174.388 11.8261Z" fill="#414142"/>
<path d="M161.163 7.87403L163.17 6.83521L164.958 10.1248L167.639 15.0705L168.381 16.4331L169.222 17.9913L169.525 18.5484L170.646 20.6185L173.668 27.2354L174.486 29.4485L173.441 29.9905L172.729 30.0583L171.017 26.046L168.131 20.7163L167.139 18.8946L166.957 18.5559L166.207 17.1783L161.761 8.98061L161.163 7.87403Z" fill="#404040"/>
<path d="M174.373 11.8487L173.555 13.2112L170.676 16.9901L169.548 18.2021L169.055 18.729L167.904 19.9561L166.124 21.8606L163.011 25.2029L161.33 23.6973L165.178 19.5797L167.063 17.5622L167.253 17.359L168.813 15.6878L171.214 13.1133L172.865 10.84L173.494 11.0658L174.373 11.8487Z" fill="#404040"/>
<path d="M161.102 7.88156L163.109 6.83521L164.897 10.1324L167.578 15.0781L168.32 16.4406L169.161 18.0064L169.464 18.5634L170.585 20.626L173.63 27.2354L174.471 29.4485L173.425 29.9905L172.698 30.0808L170.964 26.0761L168.071 20.7389L167.086 18.9097L166.897 18.5785L166.147 17.1934L161.701 8.98814L161.102 7.88156Z" fill="#3E3E3F"/>
<path d="M174.35 11.8712L173.516 13.2262L170.616 16.9901L169.487 18.202L168.995 18.729L167.843 19.956L166.063 21.8681L162.943 25.2104L161.269 23.7048L165.117 19.5796L167.01 17.5622L167.2 17.3589L168.76 15.6803L171.168 13.1058L172.835 10.8324L173.471 11.0883L174.35 11.8712Z" fill="#3E3E3F"/>
<path d="M161.042 7.88913L163.049 6.84277L164.836 10.1399L167.518 15.0856L168.26 16.4557L169.101 18.0139L169.404 18.571L170.525 20.6411L173.6 27.2429L174.456 29.4486L173.418 29.9906L172.676 30.1035L170.911 26.1062L168.018 20.7616L167.025 18.9323L166.844 18.5936L166.094 17.2085L161.64 8.9957L161.042 7.88913Z" fill="#3D3D3D"/>
<path d="M174.335 11.8939L173.486 13.2414L170.563 16.9977L169.426 18.2097L168.934 18.7366L167.79 19.9636L166.003 21.8681L162.882 25.218L161.208 23.7124L165.064 19.5797L166.957 17.5547L167.147 17.3515L168.714 15.6728L171.123 13.0983L172.812 10.825L173.456 11.1035L174.335 11.8939Z" fill="#3D3D3D"/>
<path d="M160.974 7.89657L162.981 6.85022L164.768 10.1474L167.457 15.1006L168.199 16.4631L169.04 18.0289L169.343 18.586L170.464 20.6486L173.569 27.2429L174.44 29.4485L173.403 29.9905L172.645 30.126L170.865 26.1287L167.965 20.7841L166.972 18.9548L166.791 18.6161L166.033 17.231L161.58 9.00315L160.974 7.89657Z" fill="#3B3B3C"/>
<path d="M174.319 11.9164L173.448 13.2563L170.502 16.9976L169.366 18.2095L168.874 18.7365L167.73 19.9635L165.942 21.8755L162.822 25.2254L161.14 23.7198L165.003 19.5796L166.904 17.5546L167.094 17.3438L168.662 15.6727L171.07 13.0831L172.782 10.8248L173.441 11.1259L174.319 11.9164Z" fill="#3B3B3C"/>
<path d="M160.913 7.90414L162.92 6.85779L164.708 10.1549L167.397 15.1082L168.139 16.4782L168.98 18.0365L169.283 18.5935L170.404 20.6637L173.532 27.2504L174.433 29.4485L173.388 29.9905L172.615 30.1486L170.813 26.1589L167.912 20.8067L166.912 18.9699L166.73 18.6312L165.98 17.2461L161.511 9.01072L160.913 7.90414Z" fill="#3A3A3A"/>
<path d="M174.304 11.939L173.411 13.2714L170.441 16.9977L169.305 18.2096L168.813 18.7366L167.669 19.9711L165.882 21.8756L162.754 25.2255L161.08 23.7274L164.95 19.5797L166.851 17.5472L167.041 17.3439L168.609 15.6652L171.025 13.0757L172.759 10.8174L173.418 11.1486L174.304 11.939Z" fill="#3A3A3A"/>
<path d="M160.853 7.90418L162.86 6.86536L164.647 10.1625L167.336 15.1158L168.078 16.4858L168.927 18.0516L169.222 18.6086L170.343 20.6712L173.501 27.2505L174.418 29.4486L173.373 29.9906L172.592 30.1787L170.76 26.1815L167.851 20.8218L166.859 18.9925L166.677 18.6538L165.92 17.2612L161.451 9.01829L160.853 7.90418Z" fill="#383839"/>
<path d="M174.289 11.9617L173.38 13.2866L170.381 17.0053L169.245 18.2172L168.753 18.7442L167.609 19.9712L165.821 21.8832L162.693 25.2331L161.019 23.7275L164.89 19.5797L166.798 17.5397L166.988 17.3365L168.563 15.6578L170.979 13.0607L172.737 10.8099L173.403 11.1713L174.289 11.9617Z" fill="#383839"/>
<path d="M160.792 7.91163L162.799 6.8728L164.586 10.17L167.268 15.1232L168.017 16.4932L168.866 18.059L169.161 18.6161L170.282 20.6862L173.471 27.2579L174.403 29.4485L173.357 29.9905L172.562 30.2013L170.706 26.2116L167.798 20.8443L166.806 19.0075L166.616 18.6688L165.866 17.2837L161.39 9.02573L160.792 7.91163Z" fill="#373737"/>
<path d="M174.274 11.9841L173.342 13.3015L170.32 17.0051L169.184 18.2171L168.692 18.744L167.548 19.9786L165.761 21.8831L162.632 25.2405L160.951 23.7349L164.836 19.5796L166.745 17.5396L166.935 17.3364L168.51 15.6501L170.934 13.0531L172.706 10.8098L173.388 11.1937L174.274 11.9841Z" fill="#373737"/>
<path d="M160.724 7.91916L162.731 6.8728L164.518 10.1775L167.207 15.1383L167.957 16.5083L168.805 18.0741L169.101 18.6311L170.222 20.6937L173.433 27.2579L174.387 29.4485L173.342 29.9905L172.532 30.2238L170.653 26.2417L167.745 20.8669L166.745 19.0301L166.563 18.6913L165.813 17.2987L161.33 9.02573L160.724 7.91916Z" fill="#363636"/>
<path d="M174.251 12.0067L173.304 13.3165L170.26 17.0051L169.131 18.2171L168.631 18.7515L167.487 19.9786L165.7 21.8906L162.564 25.248L160.89 23.7424L164.776 19.5796L166.692 17.532L166.882 17.3288L168.457 15.6426L170.888 13.038L172.683 10.8022L173.365 11.2163L174.251 12.0067Z" fill="#363636"/>
<path d="M160.663 7.92673L162.67 6.88037L164.458 10.185L167.147 15.1458L167.889 16.5159L168.745 18.0816L169.04 18.6387L170.161 20.7088L173.403 27.2655L174.372 29.4485L173.327 29.9905L172.509 30.2465L170.6 26.2643L167.692 20.8895L166.692 19.0452L166.51 18.7064L165.753 17.3213L161.261 9.0333L160.663 7.92673Z" fill="#343434"/>
<path d="M174.236 12.0293L173.274 13.3316L170.199 17.0127L169.071 18.2247L168.578 18.7516L167.427 19.9786L165.639 21.8907L162.504 25.2556L160.83 23.75L164.723 19.5797L166.639 17.5321L166.829 17.3213L168.404 15.6351L170.835 13.0305L172.653 10.7948L173.35 11.2314L174.236 12.0293Z" fill="#343434"/>
<path d="M160.603 7.93429L162.61 6.88794L164.397 10.1926L167.086 15.1534L167.828 16.5234L168.684 18.0967L168.98 18.6538L170.108 20.7164L173.373 27.273L174.365 29.4486L173.312 29.9981L172.479 30.2766L170.555 26.2944L167.631 20.9121L166.639 19.0678L166.45 18.7291L165.7 17.3364L161.201 9.04087L160.603 7.93429Z" fill="#333333"/>
<path d="M174.221 12.0519L173.236 13.3467L170.146 17.0127L169.01 18.2247L168.518 18.7591L167.366 19.9862L165.579 21.8982L162.443 25.2631L160.762 23.7576L164.662 19.5797L166.579 17.5246L166.776 17.3213L168.359 15.6276L170.79 13.023L172.63 10.7948L173.335 11.254L174.221 12.0519Z" fill="#333333"/>
<path d="M160.534 7.94174L162.542 6.89539L164.337 10.2001L167.025 15.1608L167.768 16.5384L168.624 18.1042L168.919 18.6612L170.048 20.7314L173.335 27.273L174.35 29.4485L173.297 29.998L172.449 30.2991L170.502 26.3245L167.578 20.9271L166.579 19.0828L166.397 18.744L165.639 17.3514L161.14 9.04832L160.534 7.94174Z" fill="#313132"/>
<path d="M174.206 12.0745L173.199 13.3692L170.086 17.0127L168.949 18.2322L168.457 18.7591L167.306 19.9861L165.518 21.8982L162.375 25.2631L160.701 23.765L164.609 19.5796L166.526 17.5246L166.723 17.3138L168.306 15.62L170.744 13.0079L172.6 10.7872L173.32 11.2765L174.206 12.0745Z" fill="#313132"/>
<path d="M160.474 7.94178L162.481 6.90295L164.268 10.2076L166.965 15.1759L167.707 16.546L168.563 18.1193L168.858 18.6763L169.987 20.7465L173.304 27.2805L174.334 29.4485L173.282 29.998L172.426 30.3217L170.449 26.3471L167.525 20.9497L166.525 19.1054L166.336 18.7667L165.586 17.374L161.08 9.05589L160.474 7.94178Z" fill="#303030"/>
<path d="M174.191 12.0971L173.168 13.3843L170.025 17.0202L168.889 18.2322L168.396 18.7591L167.245 19.9936L165.458 21.9057L162.314 25.2706L160.64 23.765L164.556 19.5796L166.472 17.517L166.669 17.3138L168.252 15.6125L170.699 13.0004L172.577 10.7872L173.297 11.2991L174.191 12.0971Z" fill="#303030"/>
<path d="M160.413 7.94935L162.42 6.91052L164.208 10.2152L166.904 15.1835L167.646 16.5611L168.502 18.1268L168.805 18.6839L169.926 20.754L173.274 27.2806L174.319 29.4486L173.266 29.9981L172.395 30.3444L170.396 26.3772L167.472 20.9723L166.465 19.128L166.283 18.7893L165.526 17.3891L161.011 9.06345L160.413 7.94935Z" fill="#2E2E2F"/>
<path d="M174.175 12.1197L173.13 13.3994L169.964 17.0203L168.828 18.2322L168.336 18.7667L167.184 19.9937L165.397 21.9133L162.254 25.2782L160.58 23.7727L164.496 19.5797L166.42 17.5171L166.616 17.3063L168.207 15.6051L170.653 12.9854L172.555 10.7798L173.282 11.3218L174.175 12.1197Z" fill="#2E2E2F"/>
<path d="M160.345 7.95688L162.352 6.91052L164.147 10.2227L166.844 15.191L167.586 16.5686L168.442 18.1419L168.745 18.6914L169.866 20.7691L173.236 27.2881L174.304 29.4486L173.251 29.9981L172.373 30.3745L170.343 26.3998L167.412 20.9949L166.412 19.1431L166.23 18.8043L165.473 17.4042L160.951 9.07098L160.345 7.95688Z" fill="#2D2D2D"/>
<path d="M174.153 12.1423L173.092 13.4145L169.904 17.0202L168.768 18.2397L168.275 18.7667L167.124 20.0012L165.336 21.9133L162.186 25.2857L160.512 23.7801L164.443 19.5797L166.367 17.5095L166.563 17.3063L168.154 15.5975L170.6 12.9778L172.524 10.7722L173.267 11.3443L174.153 12.1423Z" fill="#2D2D2D"/>
<path d="M160.284 7.96432L162.292 6.91797L164.087 10.2302L166.783 15.1985L167.525 16.5761L168.381 18.1493L168.684 18.7064L169.805 20.7765L173.206 27.288L174.297 29.4485L173.236 29.998L172.342 30.397L170.297 26.4299L167.359 21.0099L166.359 19.1656L166.17 18.8268L165.412 17.4267L160.89 9.07843L160.284 7.96432Z" fill="#2B2B2C"/>
<path d="M174.138 12.1648L173.062 13.4295L169.843 17.0278L168.707 18.2397L168.215 18.7742L167.063 20.0012L165.276 21.9208L162.125 25.2932L160.451 23.7877L164.382 19.5797L166.314 17.5095L166.51 17.2988L168.101 15.59L170.555 12.9628L172.502 10.7722L173.244 11.3669L174.138 12.1648Z" fill="#2B2B2C"/>
<path d="M160.224 7.97189L162.231 6.92554L164.019 10.2377L166.723 15.2136L167.465 16.5911L168.321 18.1644L168.624 18.714L169.745 20.7916L173.176 27.2956L174.282 29.4485L173.221 29.998L172.312 30.4196L170.244 26.46L167.306 21.0325L166.298 19.1807L166.117 18.8419L165.359 17.4418L160.83 9.086L160.224 7.97189Z" fill="#2A2A2A"/>
<path d="M174.123 12.1874L173.024 13.4445L169.783 17.0277L168.646 18.2472L168.154 18.7742L167.003 20.0012L165.215 21.9207L162.065 25.2932L160.391 23.7952L164.329 19.5796L166.261 17.502L166.458 17.2912L168.056 15.5824L170.51 12.9552L172.471 10.7646L173.229 11.3819L174.123 12.1874Z" fill="#2A2A2A"/>
<path d="M160.156 7.97946L162.163 6.93311L163.958 10.2378L166.662 15.2211L167.404 16.5987L168.26 18.172L168.563 18.7291L169.684 20.7992L173.145 27.2956L174.266 29.4486L173.206 29.9981L172.289 30.4422L170.191 26.4826L167.245 21.0551L166.245 19.2033L166.063 18.8646L165.298 17.4569L160.761 9.09356L160.156 7.97946Z" fill="#282829"/>
<path d="M174.107 12.2101L172.986 13.4597L169.729 17.0278L168.586 18.2473L168.093 18.7742L166.942 20.0088L165.155 21.9284L162.004 25.3008L160.322 23.8028L164.268 19.5722L166.207 17.5021L166.404 17.2913L168.002 15.5825L170.464 12.9402L172.448 10.7572L173.213 11.4046L174.107 12.2101Z" fill="#282829"/>
<path d="M160.095 7.97938L162.102 6.94055L163.897 10.2452L166.594 15.2286L167.343 16.6062L168.199 18.187L168.502 18.7365L169.623 20.8142L173.107 27.3031L174.251 29.4485L173.198 29.998L172.259 30.4647L170.138 26.5127L167.192 21.0776L166.185 19.2183L166.003 18.8795L165.245 17.4794L160.701 9.10101L160.095 7.97938Z" fill="#272727"/>
<path d="M174.092 12.2325L172.948 13.4746L169.669 17.0352L168.533 18.2472L168.033 18.7816L166.882 20.0087L165.094 21.9282L161.936 25.3082L160.262 23.8026L164.215 19.5721L166.154 17.4944L166.351 17.2836L167.949 15.5748L170.419 12.9326L172.426 10.7571L173.191 11.427L174.092 12.2325Z" fill="#272727"/>
<path d="M172.229 30.4948L166.132 19.2409L160.034 7.98691L162.042 6.94055L168.139 18.1945L174.236 29.4485L172.229 30.4948Z" fill="#262626"/>
<path d="M161.875 25.3158L160.201 23.8103L166.298 17.2837L172.396 10.7496L174.069 12.2552L167.972 18.7817L161.875 25.3158Z" fill="#262626"/>
<path d="M157.194 0.376343V28.244L175.152 37.473V7.84385L157.194 0.376343ZM173.236 29.9679L161.034 24.563V7.45994L164.45 8.67191L167.639 9.80859L173.032 11.7131L173.236 11.7884V29.9679Z" fill="black"/>
</svg>
