<svg xmlns="http://www.w3.org/2000/svg" width="2376.749" height="1923.238" viewBox="0 0 2376.749 1923.238">
  <path id="Tracé_149" data-name="Tracé 149" d="M2161.712,686.481a459.373,459.373,0,0,0-30.472-129.953C2015.7,265.448,1598.625,127.139,1258.37,153.881,1047.051,170.429,840.2,259.515,719.8,406.684,629.277,517.417,591.956,651.8,541.136,779.328c-73.748,185.112-210.723,283.557-353.654,427.551-117.322,118.253-247.349,335.2-78.91,465.241,170.623,131.792,387.4-3.928,535.3-92.764,231.965-139.23,502.739-216.95,777.682-272.107,217.572-43.625,471.273-109.9,619.465-265.339,92.408-96.942,131.615-229.487,120.7-355.428" transform="translate(2104.468 2076.443) rotate(-170)" fill="#ffbb62"/>
</svg>
