<svg xmlns="http://www.w3.org/2000/svg" width="214.97" height="214.97" viewBox="0 0 214.97 214.97">
  <defs>
    <style>
      .cls-1 {
        fill: #fff;
      }

      .cls-2 {
        fill: #7f7f7f;
      }
    </style>
  </defs>
  <g id="Calque_2" data-name="Calque 2">
    <g id="Calque_1-2" data-name="Calque 1">
      <g id="LaManuSocialMedia_RVB_greyscale">
        <rect width="214.97" height="214.97"/>
        <g>
          <g>
            <polygon class="cls-1" points="51.76 140.77 47.57 140.77 47.57 172.95 60.47 172.95 60.47 172.08 51.76 172.08 51.76 140.77"/>
            <path class="cls-1" d="M64.23,165.54h7.61L73.36,173h4.19l-6.13-32.18H67.2L61.15,173h1.56Zm3.88-21.15,3.31,20.23H64.5Z"/>
            <polygon class="cls-1" points="111.7 140.77 108.93 140.77 101.21 162.8 93.18 140.77 89.8 140.77 89.8 172.95 91.51 172.95 91.51 148.53 99.84 170.41 107.56 148.53 107.56 172.95 111.7 172.95 111.7 140.77"/>
            <path class="cls-1" d="M125.86,173H130l-6.12-32.18h-4.23l-6,32.18h1.56l1.53-7.41h7.6ZM117,164.62l3.62-20.23,3.31,20.23Z"/>
            <polygon class="cls-1" points="146.63 162.68 135.67 140.77 131.98 140.77 131.98 172.92 133.77 172.92 133.77 145.75 147.84 173.6 148.38 173.6 148.38 140.77 146.63 140.77 146.63 162.68"/>
            <path class="cls-1" d="M165.64,140.77V167.4a5.33,5.33,0,0,1-1.16,3.58,4.08,4.08,0,0,1-3.29,1.37,6.13,6.13,0,0,1-5.47-3.39,4.7,4.7,0,0,1-.5-2.13V140.77H151V167.4q0,6.19,7,6.2a27.32,27.32,0,0,0,3.21-.19,8,8,0,0,0,3-.95,5.94,5.94,0,0,0,2.25-2.23,7.91,7.91,0,0,0,.87-4V140.77Z"/>
          </g>
          <g>
            <polygon class="cls-2" points="116.99 131.92 114.25 71.64 106.91 71.64 105.66 118.3 94.02 118.3 91.83 78.39 84.49 78.39 83.42 118.3 77.57 118.3 77.57 126.75 58.24 126.75 58.24 99.39 48.73 97.09 48.73 131.89 47.57 131.89 47.57 95.62 59.4 98.48 59.4 125.59 76.41 125.59 76.41 117.14 82.3 117.14 83.37 77.24 92.93 77.24 95.11 117.14 104.53 117.14 105.78 70.48 115.35 70.48 118.14 131.87 116.99 131.92"/>
            <g>
              <polyline class="cls-2" points="113.24 63.84 111.84 61.67 114.27 60.1 115.85 62.53 113.24 63.84"/>
              <polyline class="cls-2" points="109.7 58.41 108.3 56.23 110.75 54.66 112.33 57.09 109.7 58.41"/>
              <polyline class="cls-2" points="123.08 53.29 121.65 51.11 124.11 49.54 125.69 51.97 123.08 53.29"/>
              <polyline class="cls-2" points="123.08 44.53 121.65 42.36 124.11 40.79 125.69 43.22 123.08 44.53"/>
              <polyline class="cls-2" points="136.56 30.34 135.13 28.17 137.59 26.57 139.16 29.03 136.56 30.34"/>
              <polyline class="cls-2" points="145.51 31.66 144.11 29.49 146.54 27.89 148.15 30.34 145.51 31.66"/>
              <polyline class="cls-2" points="114.07 55.06 112.67 52.89 115.1 51.31 116.7 53.75 114.07 55.06"/>
              <polyline class="cls-2" points="115.25 33.03 113.82 30.86 116.28 29.29 117.85 31.72 115.25 33.03"/>
              <polyline class="cls-2" points="133.21 42.99 131.81 40.81 134.24 39.21 135.84 41.67 133.21 42.99"/>
              <polyline class="cls-2" points="138.62 51.06 137.19 48.91 139.65 47.31 141.22 49.74 138.62 51.06"/>
              <polyline class="cls-2" points="120.62 41.13 119.22 38.96 121.65 37.35 123.26 39.78 120.62 41.13"/>
              <polyline class="cls-2" points="122.23 34.35 120.83 32.18 123.28 30.6 124.86 33.03 122.23 34.35"/>
              <polyline class="cls-2" points="124.94 38.38 123.51 36.21 125.97 34.64 127.55 37.07 124.94 38.38"/>
              <polyline class="cls-2" points="133.01 50.51 131.61 48.34 134.04 46.77 135.64 49.2 133.01 50.51"/>
              <polyline class="cls-2" points="130.32 46.48 128.92 44.3 131.35 42.7 132.95 45.16 130.32 46.48"/>
              <polyline class="cls-2" points="135.73 54.55 134.3 52.37 136.76 50.8 138.33 53.23 135.73 54.55"/>
              <polyline class="cls-2" points="138.76 41.82 137.33 39.64 139.79 38.07 141.37 40.5 138.76 41.82"/>
              <polyline class="cls-2" points="132.24 38.24 130.81 36.07 133.27 34.46 134.84 36.92 132.24 38.24"/>
              <polyline class="cls-2" points="145.51 44.93 144.11 42.76 146.54 41.16 148.15 43.62 145.51 44.93"/>
              <polyline class="cls-2" points="128.06 27.11 126.66 24.97 129.09 23.36 130.69 25.8 128.06 27.11"/>
              <polyline class="cls-2" points="118.45 62.99 117.05 60.81 119.48 59.24 121.08 61.67 118.45 62.99"/>
              <polyline class="cls-2" points="114.84 40.76 113.42 38.58 115.88 37.01 117.45 39.44 114.84 40.76"/>
              <polyline class="cls-2" points="121.94 60.61 120.51 58.44 122.97 56.86 124.54 59.3 121.94 60.61"/>
              <polyline class="cls-2" points="120.22 48.85 118.82 46.68 121.25 45.08 122.86 47.54 120.22 48.85"/>
              <polyline class="cls-2" points="119.71 57.15 118.28 54.98 120.74 53.4 122.31 55.83 119.71 57.15"/>
              <polyline class="cls-2" points="114.84 49.51 113.42 47.34 115.88 45.74 117.45 48.2 114.84 49.51"/>
              <polyline class="cls-2" points="128.46 52.63 127.06 50.46 129.49 48.85 131.09 51.31 128.46 52.63"/>
              <polyline class="cls-2" points="127.95 60.93 126.52 58.75 128.98 57.18 130.55 59.61 127.95 60.93"/>
            </g>
          </g>
        </g>
      </g>
    </g>
  </g>
</svg>
