<svg xmlns="http://www.w3.org/2000/svg" width="385.84" height="115.41" viewBox="0 0 385.84 115.41">
  <g id="Calque_2" data-name="Calque 2">
    <g id="Calque_1-2" data-name="Calque 1">
      <g id="LaManuCompact_RVB_black">
        <g>
          <path d="M155.16,68.36h7.28v1.46h-5.67v6.53h4.66v1.46h-4.66V85.1h5.67v1.48h-7.28Zm4.34-4.71h1.85L159,66.87h-1.3Z"/>
          <path d="M164.19,82.55V72.37c0-2.66,1.43-4.27,4-4.27s4,1.61,4,4.27v1.87h-1.53V72.29c0-1.77-1-2.73-2.45-2.73s-2.37,1-2.37,2.73V82.65c0,1.77.91,2.71,2.37,2.71s2.45-.94,2.45-2.71V80.18h1.53v2.37c0,2.68-1.43,4.29-4,4.29S164.19,85.23,164.19,82.55Z"/>
          <path d="M174.18,82.39V72.55c0-2.89,1.46-4.45,4.09-4.45s4.09,1.56,4.09,4.45v9.84c0,2.89-1.46,4.45-4.09,4.45S174.18,85.28,174.18,82.39Zm6.56.1v-10c0-2-.88-2.88-2.47-2.88s-2.47.93-2.47,2.88v10c0,2,.88,2.87,2.47,2.87S180.74,84.45,180.74,82.49Z"/>
          <path d="M184.8,68.36h1.62V85.1h5.44v1.48H184.8Z"/>
          <path d="M193.68,68.36H201v1.46h-5.68v6.53H200v1.46h-4.66V85.1H201v1.48h-7.29Z"/>
          <path d="M206.64,82.52v-1h1.54v1.12c0,1.83.94,2.74,2.45,2.74s2.44-.91,2.44-2.76-.73-2.89-3-4.69c-2.58-2.06-3.44-3.49-3.44-5.57,0-2.65,1.46-4.24,4-4.24s3.93,1.59,3.93,4.32v.73h-1.53v-.84c0-1.82-.89-2.75-2.4-2.75s-2.39,1-2.39,2.68.78,2.73,3,4.55c2.58,2.09,3.39,3.49,3.39,5.7,0,2.76-1.46,4.35-4.06,4.35S206.64,85.25,206.64,82.52Z"/>
          <path d="M216.67,82.39v-14h1.61V82.49c0,2,.88,2.87,2.45,2.87s2.44-.91,2.44-2.87V68.36h1.56v14c0,2.86-1.4,4.45-4,4.45S216.67,85.25,216.67,82.39Z"/>
          <path d="M227.29,68.36h3.85c2.78,0,4.06,1.43,4.06,4.37v1.46c0,2.94-1.28,4.37-4.06,4.37H228.9v8h-1.61Zm3.85,8.72c1.69,0,2.45-.76,2.45-2.81V72.63c0-2-.76-2.81-2.45-2.81H228.9v7.26Z"/>
          <path d="M237.23,68.36h7.29v1.46h-5.68v6.53h4.66v1.46h-4.66V85.1h5.68v1.48h-7.29Zm4.35-4.71h1.85l-2.37,3.22h-1.31Z"/>
          <path d="M246.44,68.36h3.88c2.84,0,4,1.27,4,4.14v1.12c0,2-.71,3.25-2.21,3.67v0c1.58.36,2.21,1.59,2.21,3.75v3.3a7.16,7.16,0,0,0,.26,2.19H253a8.2,8.2,0,0,1-.24-2.21V81c0-2.11-.78-2.84-2.7-2.84h-2v8.41h-1.62Zm3.57,8.3c1.85,0,2.73-.78,2.73-2.76V72.63c0-2-.7-2.81-2.47-2.81h-2.21v6.84Z"/>
          <path d="M256.83,68.36h1.61V86.58h-1.61Z"/>
          <path d="M261.1,68.36h7.29v1.46h-5.68v6.53h4.66v1.46h-4.66V85.1h5.68v1.48H261.1Z"/>
          <path d="M270.23,82.39v-14h1.62V82.49c0,2,.88,2.87,2.45,2.87s2.44-.91,2.44-2.87V68.36h1.56v14c0,2.86-1.4,4.45-4,4.45S270.23,85.25,270.23,82.39Z"/>
          <path d="M280.86,68.36h3.87c2.84,0,4,1.27,4,4.14v1.12c0,2-.7,3.25-2.21,3.67v0c1.58.36,2.21,1.59,2.21,3.75v3.3a7.16,7.16,0,0,0,.26,2.19h-1.64a8.2,8.2,0,0,1-.24-2.21V81c0-2.11-.78-2.84-2.7-2.84h-2v8.41h-1.61Zm3.56,8.3c1.85,0,2.73-.78,2.73-2.76V72.63c0-2-.7-2.81-2.47-2.81h-2.21v6.84Z"/>
          <path d="M291.24,68.36h7.29v1.46h-5.67v6.53h4.66v1.46h-4.66V85.1h5.67v1.48h-7.29Z"/>
          <path d="M155.16,94.39h4.06c2.78,0,4.06,1.43,4.06,4.37v9.45c0,3-1.28,4.4-4.06,4.4h-4.06Zm4,16.74c1.69,0,2.47-.78,2.47-2.84V98.71c0-2.06-.78-2.86-2.47-2.86h-2.42v15.28Z"/>
          <path d="M165.7,94.39H173v1.46h-5.68v6.53H172v1.46h-4.66v7.29H173v1.48H165.7Z"/>
          <path d="M174.42,108.55v-1H176v1.12c0,1.83.94,2.74,2.45,2.74s2.45-.91,2.45-2.76-.73-2.89-3-4.69c-2.58-2-3.44-3.49-3.44-5.57,0-2.65,1.46-4.24,4-4.24s3.93,1.59,3.93,4.32v.73h-1.54v-.83c0-1.83-.88-2.76-2.39-2.76s-2.4,1-2.4,2.68.78,2.73,3.05,4.55c2.58,2.09,3.38,3.49,3.38,5.7,0,2.76-1.46,4.35-4.06,4.35S174.42,111.28,174.42,108.55Z"/>
          <path d="M188.84,94.39h2.42l3.05,15.23,3-15.23h2.42v18.22h-1.58V96.73L195,112.61h-1.41L190.3,96.73v15.88h-1.46Z"/>
          <path d="M202.43,94.39h7.29v1.46H204v6.53h4.66v1.46H204v7.29h5.68v1.48h-7.29Zm4.34-4.71h1.85l-2.37,3.22H205Z"/>
          <path d="M214.14,95.85h-3.33V94.39h8.3v1.46h-3.36v16.76h-1.61Z"/>
          <path d="M220.93,94.39h1.62v18.22h-1.62Z"/>
          <path d="M225.2,94.39h7.29v1.46h-5.67v6.53h4.66v1.46h-4.66v7.29h5.67v1.48H225.2Z"/>
          <path d="M234.42,94.39h3.88c2.83,0,4,1.27,4,4.14v1.12c0,2-.7,3.25-2.21,3.67v.05c1.59.36,2.21,1.59,2.21,3.75v3.3a7.12,7.12,0,0,0,.26,2.19H241a8.3,8.3,0,0,1-.23-2.21V107c0-2.11-.78-2.84-2.71-2.84h-2v8.41h-1.61Zm3.56,8.3c1.85,0,2.74-.78,2.74-2.76V98.66c0-2-.7-2.81-2.48-2.81H236v6.84Z"/>
          <path d="M244.26,108.55v-1h1.53v1.12c0,1.83.94,2.74,2.45,2.74s2.45-.91,2.45-2.76-.73-2.89-3-4.69c-2.57-2-3.43-3.49-3.43-5.57,0-2.65,1.45-4.24,4-4.24s3.93,1.59,3.93,4.32v.73h-1.54v-.83c0-1.83-.88-2.76-2.39-2.76s-2.4,1-2.4,2.68.78,2.73,3,4.55c2.57,2.09,3.38,3.49,3.38,5.7,0,2.76-1.46,4.35-4.06,4.35S244.26,111.28,244.26,108.55Z"/>
          <path d="M258.68,94.39h4.06c2.78,0,4.06,1.43,4.06,4.37v9.45c0,3-1.28,4.4-4.06,4.4h-4.06Zm4,16.74c1.69,0,2.48-.78,2.48-2.84V98.71c0-2.06-.79-2.86-2.48-2.86h-2.42v15.28Z"/>
          <path d="M269.12,108.42v-14h1.61v14.13c0,2,.89,2.87,2.45,2.87s2.44-.91,2.44-2.87V94.39h1.57v14c0,2.86-1.41,4.45-4,4.45S269.12,111.28,269.12,108.42Z"/>
          <path d="M284,94.39h2.14l4.73,14.08V94.39h1.51v18.22h-1.72l-5.17-15.54v15.54H284Z"/>
          <path d="M294.94,108.42v-14h1.61v14.13c0,2,.89,2.87,2.45,2.87s2.45-.91,2.45-2.87V94.39H303v14c0,2.86-1.41,4.45-4,4.45S294.94,111.28,294.94,108.42Z"/>
          <path d="M305.56,94.39H308l3,15.23,3-15.23h2.42v18.22H314.9V96.73l-3.22,15.88h-1.41L307,96.73v15.88h-1.46Z"/>
          <path d="M319.15,94.39h7.29v1.46h-5.68v6.53h4.66v1.46h-4.66v7.29h5.68v1.48h-7.29Zm4.34-4.71h1.85L323,92.9h-1.3Z"/>
          <path d="M328.36,94.39h3.88c2.84,0,4,1.27,4,4.14v1.12c0,2-.7,3.25-2.21,3.67v.05c1.59.36,2.21,1.59,2.21,3.75v3.3a7.44,7.44,0,0,0,.26,2.19h-1.64a8.3,8.3,0,0,1-.23-2.21V107c0-2.11-.78-2.84-2.71-2.84h-2v8.41h-1.61Zm3.57,8.3c1.85,0,2.73-.78,2.73-2.76V98.66c0-2-.7-2.81-2.47-2.81H330v6.84Z"/>
          <path d="M338.75,94.39h1.61v18.22h-1.61Z"/>
          <path d="M351.66,112.85v1.45h-.52a2.31,2.31,0,0,1-2.48-1.74,4.52,4.52,0,0,1-1.77.31c-2.62,0-4.08-1.56-4.08-4.45V98.58c0-2.89,1.46-4.45,4.08-4.45S351,95.69,351,98.58v9.84a4.58,4.58,0,0,1-1.22,3.49c.23.68.7.94,1.53.94Zm-4.77-1.46c1.59,0,2.48-.91,2.48-2.87v-10c0-2-.89-2.89-2.48-2.89s-2.47.93-2.47,2.89v10C344.42,110.48,345.31,111.39,346.89,111.39Z"/>
          <path d="M353.32,108.42v-14h1.62v14.13c0,2,.88,2.87,2.44,2.87s2.45-.91,2.45-2.87V94.39h1.56v14c0,2.86-1.4,4.45-4,4.45S353.32,111.28,353.32,108.42Z"/>
          <path d="M363.94,94.39h7.29v1.46h-5.67v6.53h4.66v1.46h-4.66v7.29h5.67v1.48h-7.29Z"/>
        </g>
        <g>
          <path d="M0,66.34v49.07H146.18V66.34Zm95.32,5.71-.08,0s0,0,0,0Zm-2.83,3.69h0l0,0-.06,0ZM21.53,109H7.39V73.73H12v34.33h9.55Zm14.14,0L34,100.89H25.66L24,109H22.28l6.64-35.29h4.63L40.26,109Zm42.05,0H73.18V82.24l-8.47,24-9.14-24V109H53.7V73.73h3.71l8.8,24.15,8.47-24.15h3Zm15.52,0-1.67-8.13H83.23L81.56,109H79.85l6.63-35.29h4.63L97.83,109Zm24.69.71h-.58L101.92,79.19V109h-2V73.73h4l12,24v-24h1.91Zm20.86-8.13a8.66,8.66,0,0,1-1,4.44,6.61,6.61,0,0,1-2.46,2.44,9,9,0,0,1-3.32,1,30.59,30.59,0,0,1-3.52.21q-7.73,0-7.72-6.8V73.73h4.63V102.3a5.16,5.16,0,0,0,.54,2.34,7.11,7.11,0,0,0,1.44,1.92,6.72,6.72,0,0,0,2.09,1.31,6.56,6.56,0,0,0,2.48.48,4.47,4.47,0,0,0,3.61-1.5,5.85,5.85,0,0,0,1.27-3.92V73.73h1.92Z"/>
          <polygon points="83.52 99.88 91.11 99.88 87.48 77.69 83.52 99.88"/>
          <polygon points="25.96 99.88 33.55 99.88 29.92 77.69 25.96 99.88"/>
        </g>
        <g>
          <polygon points="360.94 86.6 358.76 38.55 352.98 38.55 351.98 75.77 342.62 75.77 340.88 43.94 335.09 43.94 334.24 75.77 329.57 75.77 329.57 82.52 314.07 82.52 314.07 60.68 306.56 58.87 306.56 86.58 305.56 86.58 305.56 57.6 315.07 59.89 315.07 81.52 328.57 81.52 328.57 74.77 333.27 74.77 334.12 42.94 341.82 42.94 343.57 74.77 351.01 74.77 352 37.55 359.71 37.55 361.94 86.56 360.94 86.6"/>
          <g>
            <polyline points="357.99 32.29 356.88 30.56 358.81 29.3 360.07 31.24 357.99 32.29"/>
            <polyline points="355.16 27.96 354.05 26.22 356.01 24.97 357.26 26.91 355.16 27.96"/>
            <polyline points="365.84 23.87 364.7 22.14 366.67 20.88 367.92 22.82 365.84 23.87"/>
            <polyline points="365.84 16.89 364.7 15.15 366.67 13.9 367.92 15.84 365.84 16.89"/>
            <polyline points="376.59 5.57 375.45 3.83 377.42 2.56 378.67 4.52 376.59 5.57"/>
            <polyline points="383.74 6.62 382.62 4.88 384.56 3.61 385.84 5.57 383.74 6.62"/>
            <polyline points="358.65 25.29 357.54 23.55 359.48 22.3 360.75 24.24 358.65 25.29"/>
            <polyline points="359.59 7.71 358.45 5.98 360.41 4.72 361.67 6.66 359.59 7.71"/>
            <polyline points="373.92 15.66 372.81 13.92 374.75 12.64 376.02 14.61 373.92 15.66"/>
            <polyline points="378.24 22.09 377.1 20.38 379.06 19.1 380.31 21.04 378.24 22.09"/>
            <polyline points="363.88 14.17 362.76 12.44 364.7 11.16 365.98 13.1 363.88 14.17"/>
            <polyline points="365.16 8.76 364.04 7.03 366 5.77 367.26 7.71 365.16 8.76"/>
            <polyline points="367.33 11.98 366.19 10.25 368.15 8.99 369.4 10.93 367.33 11.98"/>
            <polyline points="373.76 21.66 372.64 19.92 374.58 18.67 375.86 20.61 373.76 21.66"/>
            <polyline points="371.62 18.44 370.5 16.71 372.44 15.43 373.72 17.39 371.62 18.44"/>
            <polyline points="375.93 24.88 374.79 23.14 376.75 21.89 378.01 23.83 375.93 24.88"/>
            <polyline points="378.35 14.72 377.21 12.99 379.17 11.73 380.43 13.67 378.35 14.72"/>
            <polyline points="373.15 11.87 372.01 10.13 373.97 8.86 375.22 10.82 373.15 11.87"/>
            <polyline points="383.74 17.21 382.62 15.47 384.56 14.2 385.84 16.16 383.74 17.21"/>
            <polyline points="369.81 2.99 368.7 1.28 370.64 0 371.92 1.94 369.81 2.99"/>
            <polyline points="362.15 31.61 361.03 29.88 362.97 28.62 364.25 30.56 362.15 31.61"/>
            <polyline points="359.27 13.88 358.13 12.14 360.09 10.89 361.35 12.83 359.27 13.88"/>
            <polyline points="364.93 29.71 363.79 27.98 365.75 26.73 367.01 28.66 364.93 29.71"/>
            <polyline points="363.56 20.34 362.44 18.6 364.38 17.32 365.66 19.29 363.56 20.34"/>
            <polyline points="363.15 26.95 362.01 25.22 363.97 23.96 365.23 25.9 363.15 26.95"/>
            <polyline points="359.27 20.86 358.13 19.13 360.09 17.85 361.35 19.81 359.27 20.86"/>
            <polyline points="370.13 23.35 369.02 21.61 370.96 20.34 372.23 22.3 370.13 23.35"/>
            <polyline points="369.72 29.97 368.58 28.23 370.55 26.98 371.8 28.92 369.72 29.97"/>
          </g>
        </g>
      </g>
    </g>
  </g>
</svg>
