<svg xmlns="http://www.w3.org/2000/svg" width="214.97" height="214.97" viewBox="0 0 214.97 214.97">
  <g id="Calque_2" data-name="Calque 2">
    <g id="Calque_1-2" data-name="Calque 1">
      <g id="LaManuSocialMedia_RVB_black">
        <polygon points="116.99 164.62 123.92 164.62 120.61 144.39 116.99 164.62"/>
        <polygon points="64.5 164.62 71.42 164.62 68.11 144.39 64.5 164.62"/>
        <path d="M0,0V215H215V0ZM146.54,27.88l1.6,2.46-2.63,1.32-1.4-2.17Zm0,13.28,1.6,2.46-2.63,1.31-1.4-2.17Zm-5.18-.66-2.6,1.32-1.43-2.18,2.46-1.57Zm-9.55.32,2.43-1.61,1.6,2.46L133.21,43ZM133,45.16l-2.63,1.32-1.4-2.17,2.43-1.61Zm4.24,3.75,2.46-1.6,1.57,2.43-2.6,1.32Zm1.14,4.32-2.6,1.32-1.43-2.18,2.46-1.57Zm-.74-26.66L139.16,29l-2.6,1.31-1.43-2.17Zm-4.32,7.89,1.57,2.46-2.6,1.32-1.43-2.17Zm-4.18-11.1,1.6,2.44-2.63,1.31L126.66,25Zm-1.54,13.71-2.61,1.31-1.43-2.17L126,34.64Zm-7,21.37L123,56.86l1.57,2.44-2.6,1.31Zm.57,3.23L118.45,63l-1.4-2.18,2.43-1.57Zm2-8.38-1.43-2.18,2.46-1.57L125.69,52Zm0-8.76-1.43-2.17,2.46-1.57,1.58,2.43Zm.2-13.93L124.86,33l-2.63,1.32-1.41-2.17Zm-1.63,6.75,1.61,2.44-2.64,1.34L119.22,39Zm-.4,7.73,1.61,2.46-2.64,1.31-1.4-2.17Zm-.51,8.32,1.57,2.43-2.6,1.32L118.28,55Zm-4.46-24.11,1.57,2.43L115.25,33l-1.43-2.17Zm-.4,7.72,1.57,2.43-2.6,1.32-1.43-2.18Zm0,8.73,1.57,2.46-2.6,1.31-1.43-2.17Zm-.78,5.57,1.61,2.44-2.64,1.31-1.4-2.17Zm.75,11.22-2.61,1.31-1.4-2.17,2.43-1.57Zm-5.1-7.87,1.58,2.43-2.63,1.32-1.41-2.18ZM60.47,173H47.57V140.77h4.18v31.31h8.72Zm12.89,0-1.52-7.41H64.23L62.71,173H61.15l6.05-32.18h4.22L77.55,173ZM83.42,118.3H77.57v8.45H58.24V99.39l-9.51-2.3v34.8H47.57V95.62L59.4,98.48v27.11h17v-8.45H82.3l1.07-39.9h9.56l2.19,39.9h9.41l1.25-46.66h9.57l2.79,61.38-1.15.06-2.75-60.28h-7.33l-1.25,46.66H94L91.83,78.39H84.49ZM111.7,173h-4.14V148.53l-7.72,21.88-8.33-21.88V173H89.79V140.77h3.39l8,22,7.72-22h2.77Zm14.16,0-1.53-7.41h-7.6L115.2,173h-1.56l6-32.18h4.23L130,173Zm2.09-112-1.43-2.18L129,57.18l1.57,2.43Zm.51-8.3-1.4-2.17,2.43-1.61,1.6,2.46ZM134,46.77l1.6,2.43L133,50.51l-1.4-2.17ZM148.37,173.6h-.53l-14.07-27.84v27.16H132V140.77h3.69l11,21.91V140.77h1.75Zm19-7.42a7.91,7.91,0,0,1-.87,4,5.94,5.94,0,0,1-2.25,2.23,8,8,0,0,1-3,.95,27.32,27.32,0,0,1-3.21.19q-7,0-7-6.2V140.77h4.22v26.06a4.7,4.7,0,0,0,.5,2.13,6.15,6.15,0,0,0,5.47,3.39,4.08,4.08,0,0,0,3.29-1.37,5.33,5.33,0,0,0,1.16-3.58V140.77h1.75Z"/>
      </g>
    </g>
  </g>
</svg>
